<svg width="3046" height="3046" viewBox="0 0 3046 3046" fill="none" xmlns="http://www.w3.org/2000/svg">
<path d="M2371.4 2371.4C2743.84 1998.97 2665.85 1317.16 2197.22 848.528C1728.6 379.899 1046.78 301.916 674.348 674.348C301.916 1046.78 379.899 1728.6 848.528 2197.22C1317.16 2665.85 1998.97 2743.84 2371.4 2371.4Z" fill="url(#paint0_linear_3_177)" fill-opacity="0.35"/>
<path d="M2121.93 1626.44C2087.34 1546.12 2042.34 1470.81 2000.17 1394.19C1976.12 1350.5 1952.71 1305.65 1942.05 1256.94C1931.39 1208.22 1934.74 1154.53 1961.5 1112.46C1971.48 1096.79 1984.69 1076.68 1973.46 1061.88C1971.13 1058.81 1968.25 1056.69 1965.03 1055.4C1952.64 1050.37 1935.12 1057.18 1923.33 1066.23C1851.11 1121.62 1831.24 1225.29 1849.79 1314.39C1868.35 1403.49 1918.18 1482.32 1964.5 1560.67C2010.82 1639 2055.48 1722.23 2061.8 1813.03C2069.37 1921.88 2018.17 2030.65 1936.96 2103.56C1884.25 2150.88 1805.58 2187.29 1732.33 2176.26C1640.16 2162.39 1585.03 2068.23 1640.44 1986.4C1647.32 1976.23 1654.92 1966.6 1662.82 1957.22C1679.82 1937.03 1698.28 1917.94 1714.21 1896.87C1788.77 1798.26 1801.04 1660.31 1759.43 1543.9C1752.87 1525.56 1744.95 1507.69 1735.78 1490.45C1733.19 1485.56 1730.49 1480.72 1727.68 1475.95C1667.75 1373.26 1563.62 1295.79 1446.4 1280.9C1419.32 1277.44 1391.57 1277.33 1363.49 1281.01C1222.71 1299.49 1108.53 1410.55 1065.69 1543.23C1056.32 1572.31 1050.36 1602.41 1048.3 1632.81C1044.56 1688.01 1053.41 1743.93 1073.38 1795.49C1095.02 1851.36 1132.32 1889.88 1166.89 1937.36C1173.85 1946.9 1180.58 1956.79 1186.86 1967L1186.86 1967C1197.45 1984.24 1206.2 2002.74 1212.49 2021.52C1195.72 2031.26 1176.64 2038.11 1154.56 2041.25C1089.91 2050.49 1024.17 2026.5 970.094 1989.88C879.715 1928.71 814.203 1827.9 806.895 1719.02C800.809 1628.22 833.758 1539.71 868.985 1455.79C904.219 1371.89 942.868 1286.99 949.129 1196.19C955.391 1105.4 921.602 1005.4 842.52 960.341C829.684 953.028 811.528 948.669 799.926 955.189C796.836 956.916 794.215 959.419 792.274 962.857C783.169 979.033 798.997 997.173 810.997 1011.33C843.228 1049.38 853.86 1102.12 849.915 1151.83C845.989 1201.53 828.884 1249.16 811.013 1295.71C779.642 1377.35 745.306 1458.09 721.954 1542.37C687.251 1667.6 677.665 1802.15 712.575 1927.32C732.79 1999.81 769.11 2068.75 818.739 2125.07C720.985 2096.85 613.188 2095.88 522.766 2141.36C444.719 2180.61 386.875 2257.76 373.364 2344.53C366.716 2387.2 372.759 2441.42 408.731 2469.88C411.669 2472.19 415.036 2474.38 418.586 2475.3C420.516 2475.8 422.488 2475.93 424.457 2475.51C434.129 2473.46 436.418 2460.98 437.308 2451.12C446.027 2354.62 523.511 2268.4 618.55 2249.46C684.585 2236.32 753.335 2253.25 814.964 2280.37C842.862 2292.64 870.05 2307.05 897.277 2321.27C813.91 2322.68 731.574 2357.93 673.128 2417.42C614.136 2477.46 580.206 2561.41 580.925 2645.58C580.991 2654.11 582.214 2664.07 589.554 2668.41C603.288 2676.54 616.355 2656.92 620.64 2641.55C631.949 2601.05 645.554 2560.1 671.515 2527.02C702.148 2488 747.456 2463.21 793.656 2445.14C826.094 2432.44 859.812 2422.48 894.449 2418.74C1011.19 2406.12 1127.87 2464.58 1243.99 2447.16C1301.17 2438.59 1355.01 2408.5 1393.77 2365.85C1396.04 2368.78 1398.33 2371.67 1400.59 2374.63C1429.96 2413.13 1454.79 2460.4 1446.21 2508.07C1438.86 2548.94 1406.37 2583.09 1367.23 2596.96C1328.08 2610.83 1283.62 2605.71 1246.22 2587.64C1200.76 2565.68 1165.74 2526.38 1121.21 2502.61C1046.28 2462.62 947.042 2474.26 883.413 2530.5C857.917 2553.03 837.44 2583.51 835.022 2617.45C834.42 2625.7 835.569 2635.21 841.366 2640.68C842.132 2641.4 842.964 2642.04 843.901 2642.62C858.538 2651.6 873.6 2632.75 884.186 2619.22C924.077 2568.26 1004.7 2572.65 1062.21 2602.33C1119.74 2632 1165.91 2680.64 1223.92 2709.34C1320.88 2757.31 1446.43 2739.69 1526.43 2666.86C1573.34 2624.16 1605.13 2560.36 1595.2 2497.7C1590.68 2469.21 1578.11 2442.89 1565.18 2416.73C1579.27 2422.98 1594.01 2427.85 1608.99 2431.24C1648.51 2440.18 1689.46 2439.65 1729.78 2443.66C1770.11 2447.68 1811.58 2457.01 1843.21 2482.35C1874.82 2507.69 1893.66 2552.52 1878.61 2590.13C1859.47 2637.94 1800.19 2652.45 1749.46 2661.32C1698.74 2670.2 1639.37 2687.21 1623.36 2736.15C1619.92 2746.65 1621.89 2761.07 1629.2 2767.46C1631.76 2769.69 1634.97 2770.96 1638.83 2770.71C1646.15 2770.25 1651.69 2764.24 1656.91 2759.07C1712 2704.56 1801.21 2712.91 1875.31 2690.23C1946.67 2668.4 2010.96 2604.92 2008.67 2530.34C2006.63 2464.15 1954.24 2409.74 1895.58 2378.26C1929.66 2367.82 1962.27 2352.52 1991.72 2332.7C2099.54 2260.16 2166 2135.32 2183.57 2006.55C2201.14 1877.79 2173.34 1745.8 2121.93 1626.44Z" fill="#EB5C8B"/>
<path d="M1212.49 2021.52C1195.72 2031.26 1176.64 2038.11 1154.56 2041.25C1089.91 2050.49 1024.17 2026.5 970.094 1989.88C879.715 1928.71 814.203 1827.9 806.895 1719.02C800.809 1628.22 833.758 1539.71 868.985 1455.79C904.219 1371.89 942.868 1286.99 949.129 1196.19C955.391 1105.4 921.602 1005.4 842.52 960.341C829.684 953.028 811.528 948.669 799.926 955.189C796.836 956.916 794.215 959.419 792.274 962.857C783.169 979.033 798.997 997.173 810.997 1011.33C843.228 1049.38 853.86 1102.12 849.915 1151.83C845.989 1201.53 828.884 1249.16 811.013 1295.71C779.642 1377.35 745.306 1458.09 721.954 1542.37C687.251 1667.6 677.665 1802.15 712.575 1927.32C732.79 1999.81 769.11 2068.75 818.739 2125.07C827.997 2127.74 837.165 2130.65 846.216 2133.79C894.134 2150.44 939.88 2173.07 988.325 2188.06C1036.79 2203.04 1089.61 2210.08 1137.99 2194.83C1157.04 2188.82 1172.39 2180.44 1184.62 2170.33C1227.77 2134.63 1231.02 2076.86 1212.49 2021.52Z" fill="#D33F75"/>
<path d="M2008.67 2530.34C2006.64 2464.15 1954.25 2409.74 1895.58 2378.26C1804.88 2406.04 1703.65 2399.18 1623.19 2349.71C1592.3 2330.72 1564.91 2304.4 1544.64 2274.01C1541.34 2269.07 1538.25 2264.03 1535.34 2258.88C1531.48 2277.98 1528.89 2297.14 1530.21 2316.29C1530.27 2317.27 1530.3 2318.25 1530.39 2319.24C1533.52 2353.86 1549.61 2385.18 1565.18 2416.73C1579.27 2422.98 1594.01 2427.85 1608.99 2431.24C1648.51 2440.18 1689.47 2439.65 1729.78 2443.66C1770.11 2447.67 1811.59 2457.01 1843.21 2482.35C1874.82 2507.69 1893.66 2552.51 1878.61 2590.13C1859.47 2637.94 1800.19 2652.44 1749.46 2661.32C1698.75 2670.2 1639.37 2687.21 1623.36 2736.15C1619.92 2746.65 1621.89 2761.07 1629.2 2767.45C1631.77 2769.68 1634.97 2770.95 1638.83 2770.71C1646.15 2770.25 1651.69 2764.24 1656.91 2759.06C1712 2704.56 1801.21 2712.91 1875.31 2690.23C1946.67 2668.4 2010.96 2604.92 2008.67 2530.34Z" fill="#D33F75"/>
<path d="M1680.64 2719.49C1717.84 2701.87 1759.41 2696.32 1798.95 2684.95C1838.51 2673.58 1878.72 2654.2 1899.51 2618.67C1928.7 2568.79 1908.77 2501.52 1867.79 2460.74C1852.1 2445.13 1833.38 2432.18 1812.36 2425.25C1791.23 2418.29 1768.62 2417.61 1746.39 2416.63C1698.1 2414.55 1648.6 2410.46 1604.95 2389.71C1572.83 2374.46 1544.3 2348.26 1530.21 2316.29C1530.27 2317.27 1530.31 2318.25 1530.39 2319.24C1533.52 2353.86 1549.61 2385.18 1565.18 2416.73C1579.27 2422.98 1594.01 2427.85 1608.99 2431.24C1648.51 2440.18 1689.47 2439.65 1729.78 2443.66C1770.11 2447.67 1811.59 2457.01 1843.21 2482.35C1874.83 2507.69 1893.66 2552.51 1878.61 2590.13C1859.47 2637.94 1800.19 2652.44 1749.47 2661.32C1698.75 2670.2 1639.38 2687.21 1623.36 2736.15C1619.92 2746.65 1621.9 2761.07 1629.2 2767.45C1639.39 2748.74 1652.73 2732.69 1680.64 2719.49Z" fill="#F086AC"/>
<path d="M988.325 2188.06C1036.79 2203.04 1089.61 2210.08 1137.99 2194.83C1157.04 2188.82 1172.39 2180.44 1184.62 2170.33C1173.54 2171.14 1162.43 2173.4 1151.41 2175.06C1068.98 2187.43 981.72 2163.31 917.345 2110.33C890.493 2088.23 867.673 2061.6 847.025 2033.61C779.486 1942.04 733.38 1831.29 734.978 1717.51C736.384 1617.43 773.872 1521.88 809.251 1428.23C844.638 1334.6 878.939 1237.18 873.544 1137.24C869.935 1070.11 845.083 1004.31 799.927 955.188C796.837 956.915 794.216 959.418 792.275 962.856C783.17 979.032 798.998 997.172 810.998 1011.33C843.229 1049.38 853.861 1102.11 849.916 1151.83C845.99 1201.53 828.885 1249.16 811.014 1295.71C779.643 1377.35 745.307 1458.09 721.955 1542.36C687.252 1667.6 677.666 1802.15 712.576 1927.32C732.791 1999.81 769.111 2068.75 818.74 2125.07C827.998 2127.74 837.166 2130.65 846.217 2133.79C894.133 2150.44 939.879 2173.07 988.325 2188.06Z" fill="#F086AC"/>
<path d="M1347.36 2304.78C1346.34 2303.29 1345.34 2301.81 1344.36 2300.33C1313.81 2327.3 1276.9 2347.41 1238.62 2361.96C1182.29 2383.37 1120.85 2393.81 1061.3 2384.65C1002.92 2375.66 950.036 2348.83 897.278 2321.27C813.911 2322.68 731.575 2357.93 673.129 2417.42C614.137 2477.46 580.207 2561.41 580.926 2645.58C580.992 2654.11 582.215 2664.07 589.555 2668.41C603.289 2676.54 616.356 2656.92 620.641 2641.55C631.95 2601.05 645.555 2560.1 671.516 2527.02C702.149 2488 747.457 2463.21 793.657 2445.14C826.095 2432.44 859.813 2422.48 894.45 2418.74C1011.19 2406.12 1127.87 2464.58 1243.99 2447.16C1301.17 2438.59 1355.01 2408.5 1393.77 2365.85C1377.96 2345.53 1361.84 2325.83 1347.93 2305.6L1347.36 2304.78Z" fill="#D33F75"/>
<path d="M1687.06 1539.46C1671.32 1573.49 1669.61 1613.76 1682.42 1649.01C1692.3 1676.24 1710.63 1701.52 1710.73 1730.49C1710.88 1779.02 1661.44 1812.46 1645.19 1858.18C1631.78 1895.88 1640.87 1933.01 1662.82 1957.22C1679.83 1937.03 1698.29 1917.94 1714.21 1896.87C1788.77 1798.26 1801.04 1660.31 1759.43 1543.9C1752.88 1525.56 1744.95 1507.69 1735.79 1490.45C1714.26 1498.29 1696.96 1518.08 1687.06 1539.46Z" fill="#F086AC"/>
<path d="M1287.57 1597.5C1307.17 1583.49 1312.61 1557.24 1324.99 1536.57C1336.99 1516.53 1356.51 1501.12 1378.79 1494.11C1398.7 1487.85 1420.11 1488.18 1440.41 1483.33C1466.85 1477.01 1492 1460.52 1503.09 1435.69C1514.19 1410.88 1507.72 1377.77 1484.84 1363.09C1455.28 1344.11 1415 1361.04 1381.61 1350.12C1366.8 1345.28 1353.04 1334.9 1337.51 1336.11C1316.7 1337.72 1303.41 1359.19 1297.63 1379.25C1291.85 1399.31 1289.47 1421.53 1275.79 1437.29C1257.06 1458.85 1224.74 1460.34 1198.43 1471.45C1174.28 1481.66 1153.26 1503.21 1150.94 1529.32C1146.18 1583.24 1247.63 1626.05 1287.57 1597.5Z" fill="#F086AC"/>
<path d="M1204.62 1940.48C1214.63 1904.77 1186.03 1890.44 1160.57 1874.37C1119.79 1848.64 1099.34 1794.59 1112.85 1748.32C1119.31 1726.23 1131.17 1698.66 1113.87 1683.47C1109.13 1679.31 1102.98 1677.18 1097.72 1673.7C1075.21 1658.73 1076.26 1626.11 1077.75 1599.11C1078.82 1580.06 1076.37 1557.49 1065.69 1543.23C1056.32 1572.31 1050.36 1602.41 1048.3 1632.81C1044.56 1688.01 1053.41 1743.93 1073.38 1795.49C1095.02 1851.36 1132.32 1889.88 1166.89 1937.36C1173.85 1946.9 1180.58 1956.79 1186.86 1967L1186.86 1967C1195.27 1959.75 1201.79 1950.59 1204.62 1940.48Z" fill="#F086AC"/>
<path d="M2000.17 1394.19C1976.13 1350.5 1952.72 1305.65 1942.05 1256.94C1931.39 1208.22 1934.74 1154.53 1961.51 1112.46C1971.48 1096.79 1984.69 1076.68 1973.46 1061.88C1971.13 1058.81 1968.25 1056.69 1965.03 1055.4C1951.88 1068.92 1941.23 1084.06 1934.74 1096.88C1906.81 1152.1 1908.17 1218.41 1923.13 1277.12C1938.87 1338.85 1968.97 1395.76 1997.01 1452.95C2027.24 1514.68 2055.32 1577.48 2081.18 1641.16C2104.16 1697.76 2125.47 1755.4 2136.91 1815.39C2148.36 1875.43 2149.74 1937.41 2140.95 1997.91C2127.95 2087.6 2091.56 2175.22 2029.62 2241.39C1967.69 2307.55 1879.04 2350.51 1788.43 2348.7C1697.81 2346.89 1607.49 2296.93 1565.49 2216.61C1550.96 2232.01 1544.47 2252.79 1544.64 2274.01C1564.91 2304.4 1592.3 2330.72 1623.19 2349.71C1703.65 2399.18 1804.88 2406.04 1895.58 2378.26C1929.67 2367.82 1962.27 2352.52 1991.72 2332.7C2099.54 2260.15 2166 2135.31 2183.57 2006.55C2201.15 1877.79 2173.35 1745.8 2121.93 1626.44C2087.34 1546.12 2042.34 1470.81 2000.17 1394.19Z" fill="#F086AC"/>
<path d="M1490.07 1340.57C1502.84 1343.92 1516.29 1342.93 1529.44 1344.16C1577.27 1348.59 1620.31 1385.74 1631.71 1432.4C1636.84 1453.47 1638.72 1479.74 1658.31 1488.99C1679.82 1499.15 1705.52 1491.87 1727.68 1475.95C1667.75 1373.26 1563.62 1295.79 1446.4 1280.9C1445.99 1307.22 1464.3 1333.76 1490.07 1340.57Z" fill="#D33F75"/>
<path d="M907.614 2553.53C951.118 2523.99 1008.34 2515.72 1058.41 2531.72C1092.09 2542.48 1121.54 2563.13 1151.67 2581.65C1194.72 2608.11 1241.01 2630.98 1290.87 2639.27C1340.73 2647.55 1394.84 2639.88 1435.53 2609.93C1476.23 2579.97 1500.2 2525.46 1486.41 2476.84C1479.24 2451.53 1463.11 2429.91 1448.63 2407.96C1416.75 2359.59 1391.66 2306.75 1374.25 2251.5C1373.4 2248.77 1373.38 2244.56 1371.67 2242.21C1369.23 2238.84 1366.39 2243.87 1363.66 2244.08C1360.14 2244.36 1357.7 2240.04 1354.17 2239.79C1352.46 2239.66 1350.81 2240.55 1349.62 2241.77C1347.65 2243.79 1346.54 2246.63 1345.04 2248.98C1342.6 2252.85 1339.57 2256.44 1336.45 2259.78C1329.88 2266.79 1322.2 2272.7 1314.06 2277.77C1297.21 2288.26 1278.45 2295.29 1259.79 2301.79C1204.3 2321.14 1146.96 2339.49 1088.24 2337.58C947.922 2333 831.644 2215.53 691.621 2205.23C615.348 2199.61 537.183 2228.58 482.98 2282.54C442.531 2322.8 415.781 2380.56 417.523 2438.21C417.855 2449.08 417.796 2462.24 418.586 2475.3C420.516 2475.8 422.488 2475.93 424.457 2475.51C434.129 2473.46 436.418 2460.98 437.308 2451.12C446.027 2354.62 523.511 2268.4 618.55 2249.46C684.585 2236.31 753.335 2253.24 814.964 2280.37C842.862 2292.64 870.05 2307.05 897.277 2321.27C950.035 2348.83 1002.92 2375.66 1061.3 2384.65C1120.85 2393.81 1182.29 2383.37 1238.62 2361.95C1276.9 2347.4 1313.81 2327.29 1344.35 2300.32C1345.33 2301.81 1346.34 2303.29 1347.36 2304.77L1347.8 2303.87C1347.85 2304.45 1347.87 2305.02 1347.92 2305.59C1361.83 2325.83 1377.96 2345.53 1393.77 2365.85C1396.04 2368.77 1398.33 2371.67 1400.59 2374.63C1429.96 2413.12 1454.79 2460.4 1446.21 2508.06C1438.86 2548.94 1406.37 2583.09 1367.23 2596.96C1328.08 2610.83 1283.62 2605.7 1246.22 2587.63C1200.76 2565.67 1165.74 2526.38 1121.21 2502.61C1046.28 2462.62 947.042 2474.26 883.413 2530.49C857.917 2553.03 837.44 2583.5 835.022 2617.44C834.42 2625.69 835.569 2635.21 841.366 2640.67C853.848 2605.64 876.45 2574.7 907.614 2553.53Z" fill="#F086AC"/>
<path d="M1784.32 2292.38C1807.39 2292.03 1830.75 2287.31 1850.74 2275.81C1870.73 2264.31 1887.08 2245.54 1892.85 2223.21C1893.76 2219.71 1894.4 2215.99 1893.36 2212.53C1891.35 2205.78 1883.45 2202.29 1876.44 2202.8C1869.42 2203.32 1863.04 2206.84 1856.79 2210.06C1824.59 2226.61 1786.2 2236.81 1752.29 2224.12C1739.1 2219.19 1727.17 2210.99 1713.56 2207.36C1699.95 2203.73 1683.03 2206.23 1675.74 2218.29C1669.78 2228.16 1672.38 2241.38 1679.02 2250.81C1702.33 2283.88 1746.31 2292.97 1784.32 2292.38Z" fill="#D33F75"/>
<path d="M2007.09 2200C2035.38 2180.65 2057.43 2151.98 2068.25 2119.41C2071.05 2110.97 2073.13 2101.77 2070.54 2093.27C2067.94 2084.76 2059.15 2077.59 2050.51 2079.69C2046.98 2080.56 2043.94 2082.79 2041.23 2085.2C2020.09 2104.04 2012.61 2136.57 1987.81 2150.25C1979.02 2155.1 1968.91 2156.97 1959.69 2160.95C1950.47 2164.93 1941.52 2172.05 1939.92 2181.96C1933.29 2223.14 1988.82 2212.5 2007.09 2200Z" fill="#F086AC"/>
<path d="M1894.38 1309.99C1887.82 1290.34 1889.61 1268.88 1885.04 1248.68C1884.23 1245.11 1882.9 1241.17 1879.6 1239.59C1875.57 1237.65 1870.53 1240.5 1868.51 1244.5C1866.5 1248.5 1866.69 1253.21 1866.94 1257.68C1868.74 1289.24 1871.48 1320.73 1875.17 1352.11C1879.51 1389.12 1914.19 1384.59 1909.24 1349.85C1907.23 1335.77 1898.89 1323.47 1894.38 1309.99Z" fill="#D33F75"/>
<path d="M1329.68 1784.96C1326.11 1748.44 1293.62 1721.71 1257.09 1725.27C1220.57 1728.83 1193.84 1761.33 1197.4 1797.86C1200.96 1834.38 1233.46 1861.11 1269.99 1857.55C1306.51 1853.99 1333.24 1821.48 1329.68 1784.96Z" fill="#044857"/>
<path d="M1250.69 1805.18C1268.91 1805.18 1283.67 1790.41 1283.67 1772.2C1283.67 1753.99 1268.91 1739.22 1250.69 1739.22C1232.47 1739.22 1217.71 1753.99 1217.71 1772.2C1217.71 1790.41 1232.47 1805.18 1250.69 1805.18Z" fill="white"/>
<path d="M1587.72 1784.96C1584.16 1748.44 1551.66 1721.71 1515.13 1725.27C1478.61 1728.83 1451.88 1761.33 1455.44 1797.86C1459 1834.38 1491.5 1861.11 1528.03 1857.55C1564.55 1853.99 1591.28 1821.48 1587.72 1784.96Z" fill="#044857"/>
<path d="M1508.73 1739.22C1490.51 1739.22 1475.75 1753.99 1475.75 1772.2C1475.75 1790.41 1490.51 1805.18 1508.73 1805.18C1526.95 1805.18 1541.71 1790.41 1541.71 1772.2C1541.71 1753.99 1526.95 1739.22 1508.73 1739.22Z" fill="white"/>
<path d="M1536.12 1657.74C1516.65 1654.5 1496.46 1657.56 1477.95 1664.42C1466.51 1668.67 1455.02 1674.88 1448.89 1685.44C1440.39 1700.1 1448.16 1723.29 1467.16 1719.12C1475.91 1717.2 1484.28 1706.62 1493.36 1703.47C1504.16 1699.73 1516.12 1699.05 1527.2 1701.92C1543.68 1706.19 1558.01 1717.54 1574.9 1719.61C1578.65 1720.06 1582.62 1720.02 1585.99 1718.31C1591.4 1715.58 1594.07 1708.98 1593.58 1702.94C1593.08 1696.89 1589.96 1691.36 1586.27 1686.54C1574.26 1670.88 1555.59 1660.98 1536.12 1657.74Z" fill="#044857"/>
<path d="M1211.15 1719.12C1219.9 1717.2 1228.27 1706.62 1237.34 1703.47C1248.14 1699.72 1260.1 1699.04 1271.19 1701.92C1287.66 1706.19 1302 1717.54 1318.89 1719.61C1322.64 1720.06 1326.61 1720.02 1329.98 1718.31C1335.39 1715.58 1338.06 1708.98 1337.57 1702.93C1337.07 1696.89 1333.95 1691.36 1330.26 1686.54C1318.25 1670.88 1299.59 1660.98 1280.11 1657.74C1260.64 1654.5 1240.45 1657.56 1221.94 1664.42C1210.5 1668.67 1199 1674.88 1192.88 1685.44C1184.38 1700.1 1192.15 1723.29 1211.15 1719.12Z" fill="#044857"/>
<path d="M1438.54 2118.27C1450.41 2098.4 1451.85 2071.93 1439.67 2052.25C1437.44 2048.65 1434.61 2045.15 1430.68 2043.59C1422.46 2040.32 1413.89 2046.46 1406.01 2050.46C1391.55 2057.8 1373.74 2058.17 1358.99 2051.42C1348.14 2046.46 1337.83 2037.68 1326 2039.2C1309.79 2041.29 1302.57 2061.07 1302.81 2077.41C1303.04 2093.75 1306.99 2111.2 1299.44 2125.7C1286.9 2149.81 1250.67 2151.29 1234.9 2173.42C1203.09 2218.1 1273.13 2267.78 1307.12 2225.04C1318.41 2210.84 1317.71 2189.51 1329.8 2175.98C1342.6 2161.64 1364.35 2161.31 1383.05 2156.87C1405.57 2151.53 1426.66 2138.13 1438.54 2118.27Z" fill="#D33F75"/>
<path d="M1513.11 2341.74C1513.78 2337.95 1513.92 2333.99 1512.77 2330.31C1510.57 2323.29 1504.19 2318.56 1499.59 2312.81C1491.35 2302.53 1488.83 2288.82 1488.14 2275.66C1487.43 2262.51 1488.26 2249.17 1485.53 2236.28C1483.28 2225.66 1477.32 2214.41 1466.8 2211.75C1456.06 2209.03 1444.79 2216.97 1440.56 2227.21C1436.34 2237.44 1437.69 2249.12 1440.54 2259.82C1443.39 2270.52 1447.65 2280.89 1449.16 2291.85C1450.59 2302.27 1449.47 2312.85 1449.58 2323.37C1449.68 2333.89 1451.21 2344.85 1457.19 2353.5C1472.54 2375.67 1508.42 2368.26 1513.11 2341.74Z" fill="#F086AC"/>
<path d="M528.184 2172.32C520.946 2178.15 516.36 2186.7 509.434 2192.91C499.391 2201.91 485.614 2205.07 472.739 2209.08C459.868 2213.08 446.341 2219.08 439.997 2230.98C435.302 2239.78 435.282 2250.59 430.04 2259.07C426.009 2265.61 419.356 2269.99 413.52 2274.99C407.688 2279.99 402.223 2286.51 402.094 2294.2C401.555 2328.04 446.59 2287.29 451.602 2275.97C458.086 2261.31 463.153 2244.41 476.805 2236.03C484.653 2231.2 494.125 2230.08 503.176 2228.38C515.703 2226.05 528.274 2222.31 538.539 2214.76C548.797 2207.21 556.48 2195.29 556.375 2182.55C556.34 2178.76 555.562 2174.82 553.219 2171.83C547.477 2164.51 535.43 2166.49 528.184 2172.32Z" fill="#D33F75"/>
<path d="M1166.79 2269.8C1146.06 2264.43 1125.34 2259.06 1104.61 2253.69C1098.58 2252.12 1092.36 2250.55 1086.17 2251.35C1076.33 2252.61 1068.18 2259.62 1058.62 2262.28C1036.88 2268.32 1016.29 2251.16 994.813 2244.25C988.118 2242.09 980.833 2240.94 974.055 2242.82C967.274 2244.7 961.168 2250.19 960.2 2257.16C956.848 2281.28 1002.48 2298.65 1020.11 2302.04C1032.32 2304.39 1045.62 2303.49 1056.2 2296.96C1062.97 2292.78 1068.35 2286.49 1075.49 2282.98C1090.32 2275.67 1107.89 2282.06 1123.47 2287.61C1139.05 2293.17 1158.02 2297.31 1170.83 2286.84C1174.54 2283.81 1177.45 2278.45 1174.96 2274.36C1173.3 2271.63 1169.89 2270.6 1166.79 2269.8Z" fill="#F086AC"/>
<path d="M1452.56 2650.68C1447.79 2649.88 1442.94 2651.54 1438.67 2653.8C1425.54 2660.75 1415.23 2673.7 1400.6 2676.29C1386.54 2678.79 1372.83 2670.91 1358.62 2669.43C1338.17 2667.29 1300.28 2687.87 1324.3 2709.1C1342.77 2725.42 1381.96 2721.31 1403.03 2714.71C1427.27 2707.12 1448.85 2690.15 1460 2667.33C1461.1 2665.07 1462.12 2662.66 1462.02 2660.15C1461.83 2655.33 1457.33 2651.47 1452.56 2650.68Z" fill="#F086AC"/>
<path d="M1454.93 1877.11C1462.9 1865.7 1444.2 1854.9 1436.28 1866.22C1415.39 1896.09 1373.82 1894.01 1355.11 1863.34C1347.89 1851.49 1329.22 1862.33 1336.48 1874.23C1364.08 1919.49 1424.86 1920.1 1454.93 1877.11Z" fill="#044857"/>
<path d="M1499.75 1526.81C1492.09 1524.52 1485.86 1519.03 1478.71 1515.46C1471.56 1511.89 1462 1510.64 1456.28 1516.23C1453.91 1518.54 1452.57 1521.7 1451.49 1524.83C1446.55 1539.21 1444.5 1556.89 1431.23 1564.32C1423.27 1568.78 1413.04 1568.11 1405.46 1573.21C1368.02 1598.37 1432.76 1641.77 1459.11 1637.42C1502.98 1630.17 1494.19 1582.91 1527.52 1571.1C1539.61 1566.82 1553.2 1572.91 1565.68 1570.01C1577.11 1567.35 1586.09 1556.48 1586.55 1544.75C1587.01 1533.03 1578.9 1521.49 1567.72 1517.95C1545.54 1510.92 1522.04 1533.5 1499.75 1526.81Z" fill="#F086AC"/>
<path d="M1299.39 1888.29C1299.39 1877.52 1284.86 1868.79 1266.94 1868.79C1249.02 1868.79 1234.48 1877.52 1234.48 1888.29C1234.48 1899.07 1249.02 1907.81 1266.94 1907.81C1284.86 1907.81 1299.39 1899.07 1299.39 1888.29Z" fill="#F086AC"/>
<path d="M1563.48 1888.29C1563.48 1877.52 1548.95 1868.79 1531.02 1868.79C1513.11 1868.79 1498.57 1877.52 1498.57 1888.29C1498.57 1899.07 1513.11 1907.81 1531.02 1907.81C1548.95 1907.81 1563.48 1899.07 1563.48 1888.29Z" fill="#F086AC"/>
<path d="M1035.44 855C1053.12 855.278 1070.37 849.574 1084.41 838.813C1097.38 827.946 1106.26 812.974 1109.56 796.375C1114.76 765.996 1117 735.186 1116.25 704.375C1116.5 660.938 1117.28 632.323 1118.59 618.531C1119.98 600.364 1124.4 582.556 1131.66 565.844C1137.19 553.693 1145.23 542.85 1155.25 534.031C1165.82 525.489 1178.09 519.309 1191.25 515.906C1207.13 512.76 1223.32 511.45 1239.5 512H1261.38V573.25H1249.28C1230.11 570.81 1210.74 576.069 1195.44 587.875C1184.11 607.676 1179.45 630.598 1182.16 653.25C1183.2 696.349 1181.77 739.472 1177.87 782.406C1175.04 805.451 1166.82 827.504 1153.87 846.781C1139.55 864.207 1121.3 877.99 1100.62 887C1127.28 897.217 1149.37 916.669 1162.88 941.813C1178.24 980.13 1184.83 1021.4 1182.19 1062.59C1182.19 1113.32 1182.71 1143.53 1183.75 1153.22C1184.15 1167.07 1189.78 1180.25 1199.5 1190.13C1214.56 1198.79 1231.97 1202.47 1249.25 1200.66H1261.34V1262H1239.47C1220.79 1262.86 1202.08 1260.75 1184.06 1255.75C1167.85 1250.08 1153.52 1240.02 1142.69 1226.69C1131.17 1211.92 1123.82 1194.33 1121.41 1175.75C1117.43 1142.22 1115.71 1108.45 1116.25 1074.69C1117.09 1042.19 1114.85 1009.7 1109.56 977.625C1106.2 961.02 1097.34 946.035 1084.41 935.094C1070.42 924.219 1053.15 918.442 1035.44 918.719V855Z" fill="#F5DE19"/>
<path d="M1784.56 918.594C1766.85 918.317 1749.58 924.094 1735.59 934.969C1722.66 945.91 1713.8 960.895 1710.44 977.5C1705.16 1009.6 1702.95 1042.13 1703.81 1074.66C1704.31 1108.42 1702.55 1142.19 1698.53 1175.72C1696.12 1194.29 1688.77 1211.88 1677.25 1226.66C1666.41 1239.99 1652.09 1250.05 1635.88 1255.72C1617.85 1260.72 1599.15 1262.83 1580.47 1261.97H1558.59V1200.75H1570.69C1587.97 1202.57 1605.38 1198.88 1620.44 1190.22C1630.22 1180.32 1635.87 1167.07 1636.25 1153.16C1637.29 1143.53 1637.81 1113.32 1637.81 1062.53C1635.17 1021.33 1641.76 980.068 1657.13 941.75C1670.64 916.63 1692.73 897.201 1719.38 887C1698.74 877.982 1680.54 864.211 1666.25 846.812C1653.31 827.535 1645.09 805.482 1642.25 782.437C1638.35 739.503 1636.92 696.38 1637.97 653.281C1640.67 630.629 1636.02 607.707 1624.69 587.906C1609.38 576.1 1590.02 570.841 1570.84 573.281H1558.75V512H1580.62C1596.76 511.459 1612.91 512.77 1628.75 515.906C1641.88 519.331 1654.12 525.521 1664.66 534.062C1674.68 542.882 1682.72 553.724 1688.25 565.875C1695.51 582.588 1699.92 600.395 1701.31 618.562C1702.6 632.354 1703.39 660.969 1703.66 704.406C1702.88 735.246 1705.1 766.089 1710.28 796.5C1713.61 813.065 1722.48 828.001 1735.44 838.844C1749.47 849.605 1766.73 855.309 1784.41 855.031L1784.56 918.594Z" fill="#F5DE19"/>
<defs>
<linearGradient id="paint0_linear_3_177" x1="1496.04" y1="2360.26" x2="1439.84" y2="607.038" gradientUnits="userSpaceOnUse">
<stop stop-color="#66A2D5"/>
<stop offset="1" stop-color="#9AE2D9"/>
</linearGradient>
</defs>
</svg>
