<svg width="1818" height="1819" viewBox="0 0 1818 1819" fill="none" xmlns="http://www.w3.org/2000/svg">
<path d="M1750.93 674.443C1716.34 594.119 1671.34 518.806 1629.17 442.189C1605.12 398.501 1581.71 353.654 1571.05 304.943C1560.39 256.22 1563.74 202.533 1590.5 160.463C1600.48 144.791 1613.69 124.678 1602.46 109.881C1600.13 106.807 1597.25 104.69 1594.03 103.397C1581.64 98.3742 1564.12 105.182 1552.33 114.229C1480.11 169.616 1460.24 273.288 1478.79 362.385C1497.35 451.487 1547.18 530.323 1593.5 608.67C1639.82 687.002 1684.48 770.233 1690.8 861.026C1698.37 969.878 1647.17 1078.65 1565.96 1151.56C1513.25 1198.88 1434.58 1235.29 1361.33 1224.26C1269.16 1210.39 1214.03 1116.23 1269.44 1034.4C1276.32 1024.23 1283.92 1014.6 1291.82 1005.22C1308.82 985.03 1327.28 965.936 1343.21 944.873C1417.77 846.264 1430.04 708.314 1388.43 591.904C1381.87 573.56 1373.95 555.689 1364.78 538.451C1362.19 533.56 1359.49 528.721 1356.68 523.947C1296.75 421.263 1192.62 343.791 1075.4 328.904C1048.32 325.435 1020.57 325.33 992.492 329.013C851.707 347.493 737.531 458.548 694.695 591.232C685.316 620.306 679.359 650.412 677.301 680.814C673.559 736.009 682.406 791.927 702.379 843.486C724.02 899.357 761.317 937.877 795.895 985.361C802.848 994.9 809.579 1004.79 815.856 1015L815.86 1015C826.446 1032.24 835.204 1050.74 841.493 1069.52C824.72 1079.26 805.638 1086.11 783.563 1089.25C718.915 1098.49 653.169 1074.5 599.094 1037.88C508.715 976.712 443.203 875.903 435.895 767.021C429.809 676.224 462.758 587.705 497.985 503.787C533.219 419.885 571.868 334.986 578.129 244.193C584.391 153.396 550.602 53.3962 471.52 8.34118C458.684 1.02818 440.528 -3.33082 428.926 3.18918C425.836 4.91618 423.215 7.41918 421.274 10.8572C412.169 27.0332 427.997 45.1732 439.997 59.3342C472.228 97.3812 482.86 150.115 478.915 199.83C474.989 249.533 457.884 297.162 440.013 343.709C408.642 425.35 374.306 506.092 350.954 590.365C316.251 715.596 306.665 850.15 341.575 975.318C361.79 1047.81 398.11 1116.75 447.739 1173.07C349.985 1144.85 242.188 1143.88 151.766 1189.36C73.7188 1228.61 15.8748 1305.76 2.36379 1392.53C-4.28421 1435.2 1.75879 1489.42 37.7308 1517.88C40.6688 1520.19 44.0358 1522.38 47.5858 1523.3C49.5158 1523.8 51.4878 1523.93 53.4568 1523.51C63.1288 1521.46 65.4178 1508.98 66.3078 1499.12C75.0268 1402.62 152.511 1316.4 247.55 1297.46C313.585 1284.32 382.335 1301.25 443.964 1328.37C471.862 1340.64 499.05 1355.05 526.277 1369.27C442.91 1370.68 360.574 1405.93 302.128 1465.42C243.136 1525.46 209.206 1609.41 209.925 1693.58C209.991 1702.11 211.214 1712.07 218.554 1716.41C232.288 1724.54 245.355 1704.92 249.64 1689.55C260.949 1649.05 274.554 1608.1 300.515 1575.02C331.148 1536 376.456 1511.21 422.656 1493.14C455.094 1480.44 488.812 1470.48 523.449 1466.74C640.191 1454.12 756.867 1512.58 872.988 1495.16C930.172 1486.59 984.011 1456.5 1022.77 1413.85C1025.04 1416.78 1027.33 1419.67 1029.59 1422.63C1058.96 1461.13 1083.79 1508.4 1075.21 1556.07C1067.86 1596.94 1035.37 1631.09 996.234 1644.96C957.082 1658.83 912.621 1653.71 875.222 1635.64C829.765 1613.68 794.741 1574.38 750.206 1550.61C675.284 1510.62 576.042 1522.26 512.413 1578.5C486.917 1601.03 466.44 1631.51 464.022 1665.45C463.42 1673.7 464.569 1683.21 470.366 1688.68C471.132 1689.4 471.964 1690.04 472.901 1690.62C487.538 1699.6 502.6 1680.75 513.186 1667.22C553.077 1616.26 633.698 1620.65 691.209 1650.33C748.74 1680 794.912 1728.64 852.916 1757.34C949.885 1805.31 1075.43 1787.69 1155.43 1714.86C1202.34 1672.16 1234.13 1608.36 1224.2 1545.7C1219.68 1517.21 1207.11 1490.89 1194.18 1464.73C1208.27 1470.98 1223.01 1475.85 1237.99 1479.24C1277.51 1488.18 1318.46 1487.65 1358.78 1491.66C1399.11 1495.68 1440.58 1505.01 1472.21 1530.35C1503.82 1555.69 1522.66 1600.52 1507.61 1638.13C1488.47 1685.94 1429.19 1700.45 1378.46 1709.32C1327.74 1718.2 1268.37 1735.21 1252.36 1784.15C1248.92 1794.65 1250.89 1809.07 1258.2 1815.46C1260.76 1817.69 1263.97 1818.96 1267.83 1818.71C1275.15 1818.25 1280.69 1812.24 1285.91 1807.07C1341 1752.56 1430.21 1760.91 1504.31 1738.23C1575.67 1716.4 1639.96 1652.92 1637.67 1578.34C1635.63 1512.15 1583.24 1457.74 1524.58 1426.26C1558.66 1415.82 1591.27 1400.52 1620.72 1380.7C1728.54 1308.16 1795 1183.32 1812.57 1054.55C1830.14 925.79 1802.34 793.798 1750.93 674.443Z" fill="#EB5C8B"/>
<path d="M841.493 1069.52C824.72 1079.26 805.638 1086.11 783.563 1089.25C718.915 1098.49 653.169 1074.5 599.094 1037.88C508.715 976.712 443.203 875.903 435.895 767.021C429.809 676.224 462.758 587.705 497.985 503.787C533.219 419.885 571.868 334.986 578.129 244.193C584.391 153.396 550.602 53.3962 471.52 8.34118C458.684 1.02818 440.528 -3.33082 428.926 3.18918C425.836 4.91618 423.215 7.41918 421.274 10.8572C412.169 27.0332 427.997 45.1732 439.997 59.3342C472.228 97.3812 482.86 150.115 478.915 199.83C474.989 249.533 457.884 297.162 440.013 343.709C408.642 425.35 374.306 506.092 350.954 590.365C316.251 715.596 306.665 850.15 341.575 975.318C361.79 1047.81 398.11 1116.75 447.739 1173.07C456.997 1175.74 466.165 1178.65 475.216 1181.79C523.134 1198.44 568.88 1221.07 617.325 1236.06C665.79 1251.04 718.614 1258.08 766.989 1242.83C786.04 1236.82 801.395 1228.44 813.622 1218.33C856.77 1182.63 860.024 1124.86 841.493 1069.52Z" fill="#D33F75"/>
<path d="M1637.67 1578.34C1635.64 1512.15 1583.25 1457.74 1524.58 1426.26C1433.88 1454.04 1332.65 1447.18 1252.19 1397.71C1221.3 1378.72 1193.91 1352.4 1173.64 1322.01C1170.34 1317.07 1167.25 1312.03 1164.34 1306.88C1160.48 1325.98 1157.89 1345.14 1159.21 1364.29C1159.27 1365.27 1159.3 1366.25 1159.39 1367.24C1162.52 1401.86 1178.61 1433.18 1194.18 1464.73C1208.27 1470.98 1223.01 1475.85 1237.99 1479.24C1277.51 1488.18 1318.47 1487.65 1358.78 1491.66C1399.11 1495.67 1440.59 1505.01 1472.21 1530.35C1503.82 1555.69 1522.66 1600.51 1507.61 1638.13C1488.47 1685.94 1429.19 1700.44 1378.46 1709.32C1327.75 1718.2 1268.37 1735.21 1252.36 1784.15C1248.92 1794.65 1250.89 1809.07 1258.2 1815.45C1260.77 1817.68 1263.97 1818.95 1267.83 1818.71C1275.15 1818.25 1280.69 1812.24 1285.91 1807.06C1341 1752.56 1430.21 1760.91 1504.31 1738.23C1575.67 1716.4 1639.96 1652.92 1637.67 1578.34Z" fill="#D33F75"/>
<path d="M1309.64 1767.49C1346.84 1749.87 1388.41 1744.32 1427.95 1732.95C1467.51 1721.58 1507.72 1702.2 1528.51 1666.67C1557.7 1616.79 1537.77 1549.52 1496.79 1508.74C1481.1 1493.13 1462.38 1480.18 1441.36 1473.25C1420.23 1466.29 1397.62 1465.61 1375.39 1464.63C1327.1 1462.55 1277.6 1458.46 1233.95 1437.71C1201.83 1422.46 1173.3 1396.26 1159.21 1364.29C1159.27 1365.27 1159.31 1366.25 1159.39 1367.24C1162.52 1401.86 1178.61 1433.18 1194.18 1464.73C1208.27 1470.98 1223.01 1475.85 1237.99 1479.24C1277.51 1488.18 1318.47 1487.65 1358.78 1491.66C1399.11 1495.67 1440.59 1505.01 1472.21 1530.35C1503.83 1555.69 1522.66 1600.51 1507.61 1638.13C1488.47 1685.94 1429.19 1700.44 1378.47 1709.32C1327.75 1718.2 1268.38 1735.21 1252.36 1784.15C1248.92 1794.65 1250.9 1809.07 1258.2 1815.45C1268.39 1796.74 1281.73 1780.69 1309.64 1767.49Z" fill="#F086AC"/>
<path d="M617.325 1236.06C665.79 1251.04 718.614 1258.08 766.989 1242.83C786.04 1236.82 801.395 1228.44 813.622 1218.33C802.544 1219.14 791.434 1221.4 780.411 1223.06C697.981 1235.43 610.72 1211.31 546.345 1158.33C519.493 1136.23 496.673 1109.6 476.025 1081.61C408.486 990.036 362.38 879.286 363.978 765.512C365.384 665.434 402.872 569.875 438.251 476.231C473.638 382.602 507.939 285.184 502.544 185.239C498.935 118.114 474.083 52.3132 428.927 3.18817C425.837 4.91517 423.216 7.41817 421.275 10.8562C412.17 27.0322 427.998 45.1722 439.998 59.3332C472.229 97.3802 482.861 150.114 478.916 199.829C474.99 249.532 457.885 297.161 440.014 343.708C408.643 425.349 374.307 506.091 350.955 590.364C316.252 715.595 306.666 850.149 341.576 975.317C361.791 1047.81 398.111 1116.75 447.74 1173.07C456.998 1175.74 466.166 1178.65 475.217 1181.79C523.133 1198.44 568.879 1221.07 617.325 1236.06Z" fill="#F086AC"/>
<path d="M976.36 1352.78C975.344 1351.29 974.337 1349.81 973.356 1348.33C942.809 1375.3 905.903 1395.41 867.625 1409.96C811.289 1431.37 749.848 1441.81 690.305 1432.65C631.922 1423.66 579.036 1396.83 526.278 1369.27C442.911 1370.68 360.575 1405.93 302.129 1465.42C243.137 1525.46 209.207 1609.41 209.926 1693.58C209.992 1702.11 211.215 1712.07 218.555 1716.41C232.289 1724.54 245.356 1704.92 249.641 1689.55C260.95 1649.05 274.555 1608.1 300.516 1575.02C331.149 1536 376.457 1511.21 422.657 1493.14C455.095 1480.44 488.813 1470.48 523.45 1466.74C640.192 1454.12 756.868 1512.58 872.989 1495.16C930.173 1486.59 984.012 1456.5 1022.77 1413.85C1006.96 1393.53 990.836 1373.83 976.926 1353.6L976.36 1352.78Z" fill="#D33F75"/>
<path d="M1316.06 587.458C1300.32 621.493 1298.61 661.763 1311.42 697.005C1321.3 724.243 1339.63 749.524 1339.73 778.489C1339.88 827.02 1290.44 860.462 1274.19 906.177C1260.78 943.88 1269.87 981.013 1291.82 1005.22C1308.83 985.029 1327.29 965.935 1343.21 944.872C1417.77 846.263 1430.04 708.313 1388.43 591.903C1381.88 573.559 1373.95 555.688 1364.79 538.45C1343.26 546.29 1325.96 566.075 1316.06 587.458Z" fill="#F086AC"/>
<path d="M916.567 645.501C936.169 631.489 941.614 605.239 953.993 584.567C965.989 564.528 985.513 549.122 1007.79 542.11C1027.7 535.848 1049.11 536.184 1069.41 531.333C1095.85 525.009 1121 508.517 1132.09 483.692C1143.19 458.876 1136.72 425.774 1113.84 411.09C1084.28 392.113 1044 409.043 1010.61 398.117C995.805 393.277 982.044 382.902 966.509 384.105C945.696 385.718 932.411 407.187 926.634 427.25C920.853 447.309 918.474 469.531 904.786 485.289C886.056 506.852 853.739 508.336 827.43 519.453C803.282 529.66 782.258 551.207 779.942 577.324C775.176 631.239 876.633 674.052 916.567 645.501Z" fill="#F086AC"/>
<path d="M833.622 988.482C843.626 952.771 815.032 938.439 789.567 922.365C748.786 896.638 728.337 842.592 741.848 796.318C748.309 774.232 760.168 746.662 742.871 731.466C738.133 727.31 731.977 725.181 726.723 721.696C704.207 706.727 705.258 674.11 706.754 647.114C707.82 628.063 705.375 605.485 694.695 591.231C685.316 620.305 679.359 650.411 677.301 680.813C673.559 736.008 682.406 791.926 702.379 843.485C724.02 899.356 761.317 937.876 795.895 985.36C802.848 994.899 809.579 1004.79 815.856 1015L815.86 1015C824.274 1007.75 830.79 998.591 833.622 988.482Z" fill="#F086AC"/>
<path d="M1629.17 442.189C1605.13 398.501 1581.72 353.654 1571.05 304.943C1560.39 256.22 1563.74 202.533 1590.51 160.463C1600.48 144.791 1613.69 124.678 1602.46 109.881C1600.13 106.807 1597.25 104.69 1594.03 103.397C1580.88 116.924 1570.23 132.061 1563.74 144.877C1535.81 200.104 1537.17 266.408 1552.13 325.115C1567.87 386.845 1597.97 443.76 1626.01 500.951C1656.24 562.681 1684.32 625.478 1710.18 689.162C1733.16 745.756 1754.47 803.396 1765.91 863.389C1777.36 923.432 1778.74 985.405 1769.95 1045.91C1756.95 1135.6 1720.56 1223.22 1658.62 1289.39C1596.69 1355.55 1508.04 1398.51 1417.43 1396.7C1326.81 1394.89 1236.49 1344.93 1194.49 1264.61C1179.96 1280.01 1173.47 1300.79 1173.64 1322.01C1193.91 1352.4 1221.3 1378.72 1252.19 1397.71C1332.65 1447.18 1433.88 1454.04 1524.58 1426.26C1558.67 1415.82 1591.27 1400.52 1620.72 1380.7C1728.54 1308.15 1795 1183.31 1812.57 1054.55C1830.15 925.791 1802.35 793.799 1750.93 674.443C1716.34 594.118 1671.34 518.806 1629.17 442.189Z" fill="#F086AC"/>
<path d="M1119.07 388.571C1131.84 391.923 1145.29 390.934 1158.44 392.157C1206.27 396.587 1249.31 433.739 1260.71 480.403C1265.84 501.473 1267.72 527.743 1287.31 536.993C1308.82 547.153 1334.52 539.872 1356.68 523.946C1296.75 421.262 1192.62 343.79 1075.4 328.903C1074.99 355.216 1093.3 381.763 1119.07 388.571Z" fill="#D33F75"/>
<path d="M536.614 1601.53C580.118 1571.99 637.341 1563.72 687.415 1579.72C721.087 1590.48 750.54 1611.13 780.673 1629.65C823.724 1656.11 870.013 1678.98 919.868 1687.27C969.731 1695.55 1023.84 1687.88 1064.53 1657.93C1105.23 1627.97 1129.2 1573.46 1115.41 1524.84C1108.24 1499.53 1092.11 1477.91 1077.63 1455.96C1045.75 1407.59 1020.66 1354.75 1003.25 1299.5C1002.4 1296.77 1002.38 1292.56 1000.67 1290.21C998.228 1286.84 995.388 1291.87 992.665 1292.08C989.138 1292.36 986.7 1288.04 983.169 1287.79C981.462 1287.66 979.814 1288.55 978.618 1289.77C976.649 1291.79 975.54 1294.63 974.044 1296.98C971.599 1300.85 968.575 1304.44 965.454 1307.78C958.88 1314.79 951.204 1320.7 943.059 1325.77C926.211 1336.26 907.45 1343.29 888.789 1349.79C833.305 1369.14 775.965 1387.49 717.242 1385.58C576.922 1381 460.644 1263.53 320.621 1253.23C244.348 1247.61 166.183 1276.58 111.98 1330.54C71.5307 1370.8 44.7807 1428.56 46.5227 1486.21C46.8547 1497.08 46.7957 1510.24 47.5857 1523.3C49.5157 1523.8 51.4877 1523.93 53.4567 1523.51C63.1287 1521.46 65.4177 1508.98 66.3077 1499.12C75.0267 1402.62 152.511 1316.4 247.55 1297.46C313.585 1284.31 382.335 1301.24 443.964 1328.37C471.862 1340.64 499.05 1355.05 526.277 1369.27C579.035 1396.83 631.921 1423.66 690.304 1432.65C749.847 1441.81 811.288 1431.37 867.624 1409.95C905.901 1395.4 942.808 1375.29 973.355 1348.32C974.335 1349.81 975.343 1351.29 976.359 1352.77L976.804 1351.87C976.847 1352.45 976.87 1353.02 976.925 1353.59C990.835 1373.83 1006.96 1393.53 1022.77 1413.85C1025.04 1416.77 1027.33 1419.67 1029.59 1422.63C1058.96 1461.12 1083.79 1508.4 1075.21 1556.06C1067.86 1596.94 1035.37 1631.09 996.234 1644.96C957.082 1658.83 912.621 1653.7 875.222 1635.63C829.765 1613.67 794.741 1574.38 750.206 1550.61C675.284 1510.62 576.042 1522.26 512.413 1578.49C486.917 1601.03 466.44 1631.5 464.022 1665.44C463.42 1673.69 464.569 1683.21 470.366 1688.67C482.848 1653.64 505.45 1622.7 536.614 1601.53Z" fill="#F086AC"/>
<path d="M1413.32 1340.38C1436.39 1340.03 1459.75 1335.31 1479.74 1323.81C1499.73 1312.31 1516.08 1293.54 1521.85 1271.21C1522.76 1267.71 1523.4 1263.99 1522.36 1260.53C1520.35 1253.78 1512.45 1250.29 1505.44 1250.8C1498.42 1251.32 1492.04 1254.84 1485.79 1258.06C1453.59 1274.61 1415.2 1284.81 1381.29 1272.12C1368.1 1267.19 1356.17 1258.99 1342.56 1255.36C1328.95 1251.73 1312.03 1254.23 1304.74 1266.29C1298.78 1276.16 1301.38 1289.38 1308.02 1298.81C1331.33 1331.88 1375.31 1340.97 1413.32 1340.38Z" fill="#D33F75"/>
<path d="M1636.09 1248C1664.38 1228.65 1686.43 1199.98 1697.25 1167.41C1700.05 1158.97 1702.13 1149.77 1699.54 1141.27C1696.94 1132.76 1688.15 1125.59 1679.51 1127.69C1675.98 1128.56 1672.94 1130.79 1670.23 1133.2C1649.09 1152.04 1641.61 1184.57 1616.81 1198.25C1608.02 1203.1 1597.91 1204.97 1588.69 1208.95C1579.47 1212.93 1570.52 1220.05 1568.92 1229.96C1562.29 1271.14 1617.82 1260.5 1636.09 1248Z" fill="#F086AC"/>
<path d="M1523.38 357.985C1516.82 338.341 1518.61 316.876 1514.04 296.676C1513.23 293.11 1511.9 289.172 1508.6 287.59C1504.57 285.645 1499.53 288.5 1497.51 292.5C1495.5 296.5 1495.69 301.211 1495.94 305.684C1497.74 337.239 1500.48 368.731 1504.17 400.114C1508.51 437.122 1543.19 432.587 1538.24 397.848C1536.23 383.767 1527.89 371.474 1523.38 357.985Z" fill="#D33F75"/>
<path d="M958.676 832.962C955.113 796.435 922.617 769.712 886.09 773.271C849.566 776.834 822.84 809.33 826.402 845.857C829.964 882.384 862.461 909.107 898.988 905.545C935.512 901.985 962.239 869.482 958.676 832.962Z" fill="#044857"/>
<path d="M879.688 853.181C897.907 853.181 912.668 838.412 912.668 820.197C912.668 801.986 897.906 787.217 879.688 787.217C861.473 787.217 846.711 801.986 846.711 820.197C846.712 838.411 861.473 853.181 879.688 853.181Z" fill="white"/>
<path d="M1216.72 832.962C1213.16 796.435 1180.66 769.712 1144.13 773.271C1107.61 776.834 1080.88 809.33 1084.44 845.857C1088 882.384 1120.5 909.107 1157.03 905.545C1193.55 901.985 1220.28 869.482 1216.72 832.962Z" fill="#044857"/>
<path d="M1137.73 787.216C1119.51 787.216 1104.75 801.985 1104.75 820.196C1104.75 838.411 1119.51 853.18 1137.73 853.18C1155.95 853.18 1170.71 838.411 1170.71 820.196C1170.71 801.985 1155.95 787.216 1137.73 787.216Z" fill="white"/>
<path d="M1165.12 705.739C1145.65 702.501 1125.46 705.563 1106.95 712.423C1095.51 716.669 1084.02 722.884 1077.89 733.443C1069.39 748.099 1077.16 771.287 1096.16 767.119C1104.91 765.201 1113.28 754.623 1122.36 751.471C1133.16 747.725 1145.12 747.045 1156.2 749.916C1172.68 754.186 1187.01 765.537 1203.9 767.607C1207.65 768.064 1211.62 768.017 1214.99 766.31C1220.4 763.576 1223.07 756.982 1222.58 750.935C1222.08 744.888 1218.96 739.357 1215.27 734.544C1203.26 718.88 1184.59 708.981 1165.12 705.739Z" fill="#044857"/>
<path d="M840.153 767.118C848.903 765.2 857.266 754.622 866.344 751.47C877.141 747.724 889.102 747.044 900.192 749.915C916.665 754.185 931.001 765.536 947.887 767.606C951.641 768.063 955.606 768.016 958.977 766.309C964.391 763.575 967.059 756.981 966.567 750.934C966.071 744.887 962.954 739.356 959.262 734.543C947.25 718.879 928.586 708.98 909.114 705.738C889.641 702.5 869.454 705.562 850.942 712.422C839.501 716.668 828.001 722.883 821.883 733.442C813.379 748.099 821.153 771.286 840.153 767.118Z" fill="#044857"/>
<path d="M1067.54 1166.27C1079.41 1146.4 1080.85 1119.93 1068.67 1100.25C1066.44 1096.65 1063.61 1093.15 1059.68 1091.59C1051.46 1088.32 1042.89 1094.46 1035.01 1098.46C1020.55 1105.8 1002.74 1106.17 987.986 1099.42C977.142 1094.46 966.834 1085.68 955.002 1087.2C938.795 1089.29 931.572 1109.07 931.807 1125.41C932.037 1141.75 935.987 1159.2 928.44 1173.7C915.897 1197.81 879.667 1199.29 863.905 1221.42C832.092 1266.1 902.135 1315.78 936.12 1273.04C947.413 1258.84 946.706 1237.51 958.796 1223.98C971.605 1209.64 993.347 1209.31 1012.05 1204.87C1034.57 1199.53 1055.66 1186.13 1067.54 1166.27Z" fill="#D33F75"/>
<path d="M1142.11 1389.74C1142.78 1385.95 1142.92 1381.99 1141.77 1378.31C1139.57 1371.29 1133.19 1366.56 1128.59 1360.81C1120.35 1350.53 1117.83 1336.82 1117.14 1323.66C1116.43 1310.51 1117.26 1297.17 1114.53 1284.28C1112.28 1273.66 1106.32 1262.41 1095.8 1259.75C1085.06 1257.03 1073.79 1264.97 1069.56 1275.21C1065.34 1285.44 1066.69 1297.12 1069.54 1307.82C1072.39 1318.52 1076.65 1328.89 1078.16 1339.85C1079.59 1350.27 1078.47 1360.85 1078.58 1371.37C1078.68 1381.89 1080.21 1392.85 1086.19 1401.5C1101.54 1423.67 1137.42 1416.26 1142.11 1389.74Z" fill="#F086AC"/>
<path d="M157.184 1220.32C149.946 1226.15 145.36 1234.7 138.434 1240.91C128.391 1249.91 114.614 1253.07 101.739 1257.08C88.8677 1261.08 75.3407 1267.08 68.9967 1278.98C64.3017 1287.78 64.2817 1298.59 59.0397 1307.07C55.0087 1313.61 48.3557 1317.99 42.5197 1322.99C36.6877 1327.99 31.2227 1334.51 31.0937 1342.2C30.5547 1376.04 75.5897 1335.29 80.6017 1323.97C87.0857 1309.31 92.1527 1292.41 105.805 1284.03C113.653 1279.2 123.125 1278.08 132.176 1276.38C144.703 1274.05 157.274 1270.31 167.539 1262.76C177.797 1255.21 185.48 1243.29 185.375 1230.55C185.34 1226.76 184.562 1222.82 182.219 1219.83C176.477 1212.51 164.43 1214.49 157.184 1220.32Z" fill="#D33F75"/>
<path d="M795.786 1317.8C775.059 1312.43 754.341 1307.06 733.614 1301.69C727.579 1300.12 721.356 1298.55 715.169 1299.35C705.333 1300.61 697.177 1307.62 687.618 1310.28C665.884 1316.32 645.286 1299.16 623.813 1292.25C617.118 1290.09 609.833 1288.94 603.055 1290.82C596.274 1292.7 590.168 1298.19 589.2 1305.16C585.848 1329.28 631.485 1346.65 649.106 1350.04C661.317 1352.39 674.618 1351.49 685.2 1344.96C691.966 1340.78 697.352 1334.49 704.489 1330.98C719.325 1323.67 736.887 1330.06 752.469 1335.61C768.055 1341.17 787.02 1345.31 799.828 1334.84C803.543 1331.81 806.453 1326.45 803.961 1322.36C802.298 1319.63 798.891 1318.6 795.786 1317.8Z" fill="#F086AC"/>
<path d="M1081.56 1698.68C1076.79 1697.88 1071.94 1699.54 1067.67 1701.8C1054.54 1708.75 1044.23 1721.7 1029.6 1724.29C1015.54 1726.79 1001.83 1718.91 987.625 1717.43C967.172 1715.29 929.277 1735.87 953.297 1757.1C971.766 1773.42 1010.96 1769.31 1032.03 1762.71C1056.27 1755.12 1077.85 1738.15 1089 1715.33C1090.1 1713.07 1091.12 1710.66 1091.02 1708.15C1090.83 1703.33 1086.33 1699.47 1081.56 1698.68Z" fill="#F086AC"/>
<path d="M1083.93 925.107C1091.9 913.701 1073.2 902.904 1065.28 914.216C1044.39 944.087 1002.82 942.009 984.113 911.337C976.89 899.493 958.218 910.329 965.476 922.232C993.083 967.493 1053.86 968.103 1083.93 925.107Z" fill="#044857"/>
<path d="M1128.75 574.814C1121.09 572.517 1114.86 567.033 1107.71 563.455C1100.56 559.885 1091 558.642 1085.28 564.225C1082.91 566.541 1081.57 569.702 1080.49 572.834C1075.55 587.209 1073.5 604.893 1060.23 612.315C1052.27 616.776 1042.04 616.108 1034.46 621.206C997.017 646.366 1061.76 689.772 1088.11 685.417C1131.98 678.167 1123.19 630.905 1156.52 619.101C1168.61 614.824 1182.2 620.914 1194.68 618.011C1206.11 615.351 1215.09 604.476 1215.55 592.753C1216.01 581.03 1207.9 569.487 1196.72 565.948C1174.54 558.915 1151.04 581.501 1128.75 574.814Z" fill="#F086AC"/>
<path d="M928.395 936.294C928.395 925.521 913.864 916.786 895.938 916.786C878.02 916.786 863.485 925.52 863.485 936.294C863.485 947.071 878.02 955.806 895.938 955.806C913.864 955.806 928.395 947.071 928.395 936.294Z" fill="#F086AC"/>
<path d="M1192.48 936.294C1192.48 925.521 1177.95 916.786 1160.02 916.786C1142.11 916.786 1127.57 925.52 1127.57 936.294C1127.57 947.071 1142.11 955.806 1160.02 955.806C1177.95 955.806 1192.48 947.071 1192.48 936.294Z" fill="#F086AC"/>
</svg>
