<svg width="1770" height="1839" viewBox="0 0 1770 1839" fill="none" xmlns="http://www.w3.org/2000/svg">
<path d="M1709.72 314.503C1627.15 307.565 1542.15 335.323 1479.6 389.626C1464.93 402.388 1451.2 416.92 1443.65 434.849C1428.84 470.059 1440.67 510.067 1450.17 547.046C1485.19 683.226 1481.14 842.555 1386.41 946.416C1357.12 978.458 1312.68 1004.86 1271.79 990.195C1263.08 987.075 1255.44 983.116 1248.83 978.458C1221.72 959.504 1211.1 928.951 1208.5 894.905C1205.42 855.224 1213.2 810.745 1218.42 774.325C1219.77 764.637 1220.98 755.509 1221.72 747.22C1222.64 737.204 1223.49 727.175 1224.29 717.135C1224.35 717.134 1224.41 717.134 1224.47 717.133C1237.23 716.899 1249.25 710.891 1259.5 703.299C1292 679.314 1309.38 639.447 1311.85 598.788C1312.54 587.704 1312.12 576.618 1310.59 565.72C1310.41 564.477 1310.22 563.236 1310.02 561.996C1309.6 559.395 1309.12 556.803 1308.59 554.225C1307.94 551.064 1307.21 547.923 1306.41 544.816C1306.28 544.332 1306.16 543.849 1306.03 543.366C1294.89 501.356 1270.35 463.258 1241.52 430.331C1233.89 421.641 1226.51 415.845 1219.54 412.484C1217.26 396.712 1214.59 380.985 1211.48 365.314C1196.25 288.793 1176.87 244.689 1134.35 200.582C1130.98 197.071 1127.46 193.562 1123.79 190.038C1123.67 189.924 1123.55 189.809 1123.43 189.696C1121.39 187.747 1119.31 185.794 1117.17 183.833C1117.12 183.789 1117.07 183.745 1117.02 183.7C1116.54 183.254 1116.05 182.808 1115.55 182.361C1115.55 182.356 1115.54 182.351 1115.54 182.347C1115.05 181.901 1114.55 181.455 1114.06 181.008C1113.96 180.92 1113.86 180.832 1113.77 180.744C1113.39 180.408 1113.02 180.072 1112.64 179.735C1112.47 179.583 1112.3 179.432 1112.13 179.28C1111.84 179.023 1111.55 178.765 1111.26 178.507C1111.05 178.322 1110.84 178.137 1110.63 177.952C1110.21 177.581 1109.79 177.209 1109.37 176.837C1109.12 176.614 1108.86 176.392 1108.61 176.169C1108.37 175.966 1108.14 175.763 1107.91 175.559C1107.65 175.338 1107.4 175.116 1107.15 174.894C1106.94 174.717 1106.74 174.54 1106.53 174.363C1105.47 173.442 1104.39 172.519 1103.31 171.593C1103.22 171.514 1103.12 171.435 1103.03 171.356C1102.68 171.061 1102.34 170.765 1101.99 170.47C1101.85 170.349 1101.7 170.228 1101.56 170.107C1100.43 169.153 1099.29 168.195 1098.14 167.233C1098.03 167.138 1097.91 167.043 1097.8 166.948C1097.42 166.634 1097.04 166.319 1096.66 166.004C1096.58 165.935 1096.5 165.867 1096.41 165.798C1096.03 165.481 1095.65 165.162 1095.26 164.844C1095.13 164.731 1094.99 164.619 1094.85 164.506C1094.23 163.99 1093.6 163.473 1092.96 162.955C1092.76 162.791 1092.56 162.628 1092.36 162.463C1092.04 162.2 1091.72 161.935 1091.39 161.671C1091.21 161.52 1091.02 161.37 1090.84 161.219C1090.5 160.948 1090.17 160.676 1089.83 160.405C1089.55 160.173 1089.26 159.94 1088.97 159.708C1088.53 159.355 1088.09 159.001 1087.65 158.646C1087.36 158.415 1087.08 158.185 1086.79 157.954C1086.49 157.715 1086.19 157.476 1085.89 157.236C1085.64 157.031 1085.38 156.825 1085.12 156.62C1084.83 156.391 1084.55 156.163 1084.26 155.934C1083.73 155.511 1083.19 155.086 1082.66 154.66C1015.08 101.1 943.028 51.6379 861.897 21.0859C744.858 -22.9731 621.715 7.85992 508.027 59.8339L507.59 60.0339C507.563 60.0469 507.536 60.0599 507.507 60.0729C493.067 66.6759 478.991 74.1389 465.369 82.3299C408.266 116.842 359.459 165.14 328.954 224.242C291.04 297.595 283.635 387.855 316.656 463.537C333.612 502.472 360.064 535.958 387.822 568.421C398.255 580.624 408.871 592.64 419.259 604.795C472.91 667.39 522.467 736.272 544.635 815.727C560.704 873.478 559.958 937.935 537.558 992.707C535.179 997.037 532.528 1001.09 529.498 1004.86C523.818 1011.99 516.922 1017.9 508.399 1022.09C489.724 1031.27 467.088 1029.36 447.717 1021.67C428.342 1014.04 411.527 1001.18 394.994 988.515C375.059 973.238 355.079 957.915 335.148 942.592C310.601 923.776 271.901 895.787 246.981 914.091C171.953 969.327 87.0927 1051.53 38.8907 1139.74C0.840748 1209.46 -14.2962 1282.95 16.4408 1349.83C47.4137 1417.13 103.489 1470.04 164.872 1511.54C185.785 1525.7 207.862 1538.92 232.358 1545.26C256.809 1551.64 284.148 1550.43 305.666 1537.15C302.125 1521.77 289.894 1511.03 276.953 1501.24C274.986 1497.79 273.036 1494.32 271.115 1490.84C272.17 1490.89 273.247 1490.87 274.346 1490.76C280.036 1490.19 283.688 1487.4 285.712 1482.1C293.53 1461.66 270.457 1439.75 263.885 1421.78C259.688 1410.29 247.018 1406.85 238.434 1412.34C237.785 1409.63 237.187 1406.91 236.65 1404.17C233.749 1389.38 232.798 1374.37 233.629 1359.47C235.654 1360.92 237.94 1362.04 240.507 1362.71C258.027 1367.28 265.295 1349.57 267.309 1335.67C269.133 1323.11 273.458 1308 272.576 1295.41C271.864 1285.21 265.564 1278.32 257.715 1276.08C265.37 1262.1 274.688 1249.03 285.472 1237.28C288.401 1248.68 301.636 1258.1 313.083 1253.68C314.179 1253.26 315.317 1253.09 316.403 1252.7C319.996 1251.42 322.552 1249.62 325.477 1247.57C325.629 1247.5 326.069 1247.27 326.842 1246.87C327.102 1246.73 328.331 1246.07 329.227 1245.57C330.688 1244.95 334.338 1243.28 334.742 1243.07C335.027 1242.93 335.24 1242.82 335.381 1242.75C335.674 1242.62 336.004 1242.48 336.37 1242.33C335.442 1242.71 342.578 1239.35 339.831 1240.72C336.238 1242.52 348.095 1237.53 342.41 1239.57C353.488 1235.6 358.588 1223.29 354.37 1213.72C357.551 1214.82 360.663 1216.21 363.665 1217.91C373.075 1223.23 381.894 1229.83 389.99 1236.93C401.098 1246.67 411.24 1257.44 421.607 1267.97C406.132 1267.73 392.319 1285.14 402.048 1299.87C405.211 1304.66 408.902 1308.84 412.547 1313.23C409.1 1309.11 417.245 1319.7 418.78 1321.42C421.95 1324.97 425.616 1328.06 429.555 1330.75C443.95 1340.56 466.009 1342.91 480.468 1332.23C484.711 1329.09 488.069 1323.61 488.498 1318.15C515.013 1331.03 544.172 1338.52 573.615 1339.83C552.594 1403.94 552.669 1474.88 574.303 1538.83C576.259 1544.56 578.401 1550.29 581.894 1555.18C586.319 1561.37 592.56 1565.89 598.941 1569.99C599.36 1570.31 599.824 1570.59 600.247 1570.87C641.322 1597.14 687.104 1615.96 734.751 1626.2C770.004 1633.79 810.943 1637.61 843.358 1653.4C877.733 1670.12 923.607 1716.51 895.804 1742.68C881.459 1756.24 863.016 1765.32 843.545 1768.48C835.581 1769.79 827.012 1770.3 820.772 1775.38C815.228 1779.85 814.809 1795.82 819.421 1802.53C818.166 1804.77 820.122 1807.93 822.123 1809.89C845.456 1832.8 882.946 1842.82 915.084 1836.71C934.512 1838.93 953.664 1830.27 967.595 1816.3C990.072 1802.26 1009.47 1783.39 1022.86 1760.59C1041.98 1728.02 1048 1687.29 1036 1651.48C1034.6 1647.33 1032.96 1643.33 1031.08 1639.45C1038.23 1641.48 1043.49 1635.09 1044.31 1628.77C1046.3 1613.27 1038.11 1601.41 1028.37 1589.89C1019.5 1579.39 1008.78 1566.97 996.19 1561.05C985.602 1556.06 971.531 1563.36 970.302 1573.9C958.99 1565.28 947.26 1556.89 935.872 1548.3C939.646 1545.88 942.521 1541.36 942.181 1536.99C941.04 1522.28 928.873 1514.04 919.695 1503.84C910.867 1494.02 904.654 1481.63 893.775 1473.99C885.866 1468.43 875.905 1473.49 872.371 1481.31C870.497 1477.55 868.835 1473.67 867.414 1469.65C860.702 1450.69 858.485 1430.95 859.419 1411.07C874.007 1362.81 908.627 1318.3 952.781 1293.57C955.044 1306.26 956.525 1317.33 956.267 1325.53C955.685 1344.03 953.456 1362.79 957.268 1380.91C961.08 1399.02 972.523 1416.97 990.284 1422.22C1003.68 1426.17 1017.2 1422.26 1029.2 1414.65C1064.61 1399.44 1102.64 1341.55 1131.26 1286.23C1136.2 1287.5 1141.13 1288.82 1146.05 1290.16C1186.88 1315.61 1237.16 1330.64 1264.8 1372.1C1266.26 1374.28 1267.61 1376.5 1268.87 1378.77C1261.33 1395.63 1260.57 1413.83 1267.79 1431.18C1270.93 1438.74 1275.94 1447.76 1282.48 1454.16C1281.34 1467.47 1278.78 1480.74 1275.3 1493.44C1275.12 1494.09 1274.94 1494.74 1274.76 1495.38C1253.19 1505.04 1241.45 1534.28 1242.06 1556.36C1242.25 1563.1 1243.27 1570.19 1245.58 1576.71C1241.38 1588.39 1237.52 1600.18 1234.47 1612.21C1232.63 1619.48 1231.08 1627.05 1232.39 1634.43C1234.09 1643.94 1240.27 1651.51 1248.39 1656.88C1262.68 1677.29 1302.71 1689.37 1334.44 1678.56C1374.61 1664.88 1403.29 1629.92 1428.05 1595.46C1457.39 1554.64 1484.43 1512.17 1508.99 1468.31C1521.53 1445.94 1533.54 1422.88 1539.29 1397.89C1552.6 1340.03 1530.81 1279.94 1503.25 1227.36C1501.25 1223.54 1499.16 1219.69 1496.94 1215.9C1552.08 1166.75 1598.24 1107.05 1633.39 1041.98C1653.23 1005.18 1669.95 966.203 1677.17 925.031C1679.35 912.536 1680.29 899.884 1680.22 887.111C1681.49 863.457 1679.57 838.175 1678.95 819.334C1678.69 811.298 1678.27 803.276 1677.72 795.268C1688.07 798.802 1700.69 794.964 1703.62 781.987C1709.28 756.844 1714.36 712.156 1685.57 698.545C1680.2 696.003 1672.59 696.692 1669.62 702.727C1668.76 704.47 1668.04 706.247 1667.44 708.05C1664.48 689.266 1661.18 670.525 1657.77 651.805C1671.29 654.788 1686.95 647.447 1685.49 630.283C1683.29 604.34 1682.2 566.324 1663.28 545.575C1661.2 540.473 1658.54 536.163 1655 534.18L1653.79 533.502C1649.03 530.841 1644.14 530.534 1639.72 531.971C1639.85 526.786 1640.3 521.615 1641.17 516.476C1642.93 506.07 1646.39 496.073 1650.89 486.516C1657.48 494.388 1670.43 497.256 1678.52 488.441C1685 481.382 1692.12 474.671 1698.97 467.922C1707.57 459.442 1718.3 451.482 1717.06 437.817C1716.26 428.93 1711.82 423.629 1703.77 420.354C1702.88 419.994 1702 419.699 1701.12 419.464C1709.47 411.631 1718.36 404.377 1727.73 397.788C1731.16 395.368 1734.78 392.33 1737.95 388.979C1746.89 388.045 1755.92 387.926 1764.91 388.689C1768.36 382.167 1768.55 367.265 1769.38 359.906C1772.41 332.107 1737.62 316.879 1709.72 314.503Z" fill="#E94C1D"/>
<path d="M1452.98 1341.61C1458.44 1369.87 1454.55 1399.08 1448.75 1427.26C1439.59 1471.71 1425.68 1515.19 1407.34 1556.7C1394.71 1585.28 1379.57 1613.48 1356.82 1634.9C1334.08 1656.32 1302.54 1670.24 1271.64 1665.62C1263.54 1664.41 1255.27 1661.44 1248.38 1656.89C1262.68 1677.3 1302.71 1689.38 1334.44 1678.57C1374.61 1664.88 1403.29 1629.92 1428.05 1595.47C1457.39 1554.65 1484.43 1512.17 1508.99 1468.32C1521.53 1445.94 1533.54 1422.89 1539.29 1397.9C1552.6 1340.03 1530.81 1279.95 1503.25 1227.36C1501.25 1223.55 1499.16 1219.7 1496.94 1215.9C1472.88 1237.34 1447.12 1256.77 1419.81 1273.77C1436.08 1293.45 1447.99 1315.81 1452.98 1341.61Z" fill="#C23918"/>
<path d="M1052.26 1393.9C1045.8 1401.69 1037.9 1409.14 1029.2 1414.66C1064.61 1399.44 1102.64 1341.55 1131.26 1286.23C1121.27 1283.66 1111.24 1281.27 1101.19 1279.22C1093.99 1321.17 1079.2 1361.39 1052.26 1393.9Z" fill="#C23918"/>
<path d="M888.508 639.591C881.685 617.541 856.988 626.463 841.857 633.155C829.979 638.408 818.438 643.169 806.656 647.332C804.324 659.532 797.157 670.321 788.161 678.86C778.685 687.853 765.922 687.013 757.07 679.338C756.064 678.968 755.074 678.546 754.105 678.076C751.971 689.977 756.849 703.47 767.564 709.557C771.423 711.749 776.037 712.982 781.357 712.833C793.851 712.482 806.598 710.506 818.889 706.984C830.115 703.767 840.962 699.262 850.89 693.516C867.522 683.893 895.449 662.016 888.508 639.591Z" fill="#0F1A12"/>
<path d="M1280.57 589.7C1273.05 601.123 1259.2 604.777 1247.85 598.8C1248.89 601.443 1250.45 603.814 1252.56 605.544C1259.49 611.236 1266.67 613.421 1273.92 613.363C1283.82 613.285 1293.86 609.033 1303.65 603.82C1306.58 602.282 1309.28 600.607 1311.85 598.79C1312.54 587.706 1312.12 576.62 1310.59 565.722C1310.41 564.479 1310.22 563.238 1310.02 561.998C1309.6 559.397 1309.12 556.805 1308.59 554.226C1307.94 551.065 1307.21 547.924 1306.41 544.817C1306.28 544.333 1306.15 543.85 1306.02 543.367C1298.85 545.983 1292.39 549.233 1285.9 552.863C1289.15 565.098 1287.57 579.066 1280.57 589.7Z" fill="#0F1A12"/>
<path d="M788.161 678.861C797.157 670.322 804.324 659.533 806.656 647.333C807.13 644.853 807.406 642.315 807.454 639.726C807.763 623.382 798.63 606.428 782.212 601.605C746.518 591.122 722.252 635.387 739.267 664.327C742.803 670.346 748.068 675.151 754.104 678.077C755.074 678.547 756.063 678.969 757.069 679.339C765.922 687.014 778.685 687.853 788.161 678.861Z" fill="white"/>
<path d="M1280.57 589.7C1287.57 579.066 1289.15 565.099 1285.9 552.863C1285.73 552.222 1285.55 551.585 1285.35 550.954C1280.55 535.533 1266.78 519.963 1249.42 519.963C1236.03 519.963 1224.45 530.813 1224.12 544.194C1224.08 545.729 1224.17 547.258 1224.38 548.765C1222.53 554.569 1222.62 560.818 1223.91 566.847C1226.34 578.206 1233.78 586.957 1242.05 594.666C1243.87 596.36 1245.82 597.734 1247.85 598.802C1259.2 604.777 1273.05 601.123 1280.57 589.7Z" fill="white"/>
<path d="M463.423 136.092C464.16 144.042 465.32 151.955 466.859 159.752C465.359 160.057 463.878 160.604 462.459 161.423C453.649 166.515 447.959 170.776 444.812 181.037C442.019 190.147 441.901 199.837 444.125 209.095C448.655 227.966 462.004 242.556 475.39 255.835C483.245 263.631 497.76 263.421 505.397 255.794C521.118 281.422 540.384 305.02 562.15 326.214C560.055 326.306 558.018 326.638 556.143 327.215C550.785 328.863 544.7 333.544 543.822 339.534C540.375 363.164 563.156 380.984 580.326 393.839C596.918 406.26 628.969 429.663 649.549 415.077C656.451 410.187 659.751 404.118 660.587 397.628C720.978 430.041 787.486 449.957 855.114 463.254C870.068 488.344 897.266 497.345 924.28 505.268C949.536 512.677 989.82 528.366 1011.24 505.614C1023.75 492.32 1022.35 475.787 1012.98 463.819C1026.14 460.7 1039.47 457.107 1053.22 453.384C1072.71 448.067 1092.24 441.345 1108.26 429.095C1113.32 430.425 1118.77 430.588 1123.58 429.558C1140.07 426.026 1154.84 416.35 1166.01 403.856C1185.03 382.577 1210.83 323.293 1169.78 309.59C1166.21 308.397 1162.69 307.861 1159.26 307.888C1159.54 276.489 1152.73 244.622 1140.68 214.96C1136.87 205.57 1131.07 197.09 1123.79 190.039C1123.67 189.925 1123.55 189.81 1123.43 189.697C1121.39 187.748 1119.31 185.795 1117.17 183.834C1117.12 183.79 1117.07 183.745 1117.02 183.701C1116.54 183.255 1116.05 182.809 1115.56 182.362C1115.55 182.357 1115.55 182.352 1115.54 182.348C1115.05 181.902 1114.55 181.456 1114.06 181.009C1113.96 180.921 1113.86 180.833 1113.77 180.745C1113.39 180.409 1113.02 180.073 1112.64 179.736C1112.47 179.584 1112.3 179.433 1112.13 179.281C1111.84 179.024 1111.55 178.766 1111.26 178.508C1111.05 178.323 1110.84 178.138 1110.63 177.953C1110.21 177.582 1109.79 177.21 1109.37 176.838C1109.12 176.615 1108.86 176.393 1108.61 176.17C1108.37 175.967 1108.14 175.764 1107.91 175.56C1107.65 175.339 1107.4 175.117 1107.15 174.895C1106.94 174.718 1106.74 174.541 1106.53 174.365C1105.47 173.444 1104.39 172.521 1103.31 171.594C1103.22 171.515 1103.12 171.436 1103.03 171.357C1102.68 171.062 1102.34 170.766 1101.99 170.471C1101.85 170.35 1101.7 170.229 1101.56 170.108C1100.43 169.154 1099.29 168.196 1098.14 167.234C1098.03 167.139 1097.91 167.044 1097.8 166.949C1097.42 166.635 1097.04 166.32 1096.66 166.005C1096.58 165.936 1096.5 165.868 1096.41 165.799C1096.03 165.482 1095.65 165.163 1095.26 164.845C1095.13 164.732 1094.99 164.62 1094.85 164.507C1094.23 163.991 1093.6 163.473 1092.96 162.955C1092.76 162.791 1092.56 162.628 1092.36 162.463C1092.04 162.2 1091.72 161.936 1091.39 161.671C1091.21 161.52 1091.02 161.37 1090.84 161.219C1090.5 160.948 1090.17 160.677 1089.83 160.405C1089.55 160.173 1089.26 159.94 1088.97 159.708C1088.53 159.355 1088.09 159.001 1087.65 158.646C1087.37 158.415 1087.08 158.185 1086.79 157.954C1086.49 157.715 1086.19 157.476 1085.89 157.236C1085.64 157.031 1085.38 156.826 1085.12 156.62C1084.84 156.392 1084.55 156.163 1084.26 155.934C1083.73 155.511 1083.19 155.086 1082.66 154.661C1015.08 101.101 943.028 51.6389 861.897 21.0869C744.858 -22.9721 621.715 7.8609 508.027 59.8349L507.59 60.0359C507.563 60.0479 507.536 60.0609 507.507 60.0739C478.293 73.4649 460.46 104.087 463.423 136.092Z" fill="#EC6640"/>
<path d="M483.157 316.948C484.608 318.072 486.072 319.477 487.683 320.375C489.248 321.032 490.808 321.692 492.372 322.351L492.554 322.426L493.054 322.547C493.996 322.747 497.438 323.249 498.407 323.261H498.821C499.799 323.243 503.16 322.759 504.115 322.554L504.62 322.443C506.126 321.806 507.636 321.169 509.146 320.533C511.357 319.342 513.13 317.713 514.463 315.651C515.641 314.468 516.451 313.074 516.901 311.469C518.088 309.211 518.634 306.775 518.534 304.167C518.311 302.487 518.083 300.806 517.856 299.128C517.219 297.618 516.583 296.108 515.946 294.6C514.977 292.803 513.723 291.296 512.178 290.077C509.675 287.046 506.342 284.727 502.433 283.837C500.677 283.603 498.922 283.366 497.166 283.13C493.591 283.141 490.257 284.042 487.165 285.836C484.859 287.08 483.004 288.781 481.607 290.937C479.856 292.852 478.673 295.096 478.064 297.675C477.118 301.186 477.118 304.697 478.064 308.208C479.005 311.562 480.701 314.475 483.157 316.948Z" fill="#EC6640"/>
<path d="M669.043 454.454C670.475 456.667 672.377 458.411 674.746 459.689L675.001 459.837C681.141 463.407 688.855 463.407 694.999 459.837L695.254 459.689C696.623 458.629 697.996 457.57 699.365 456.512C700.721 455.261 701.803 453.84 702.622 452.248C704.114 449.906 704.919 447.377 705.041 444.662C705.651 441.949 705.528 439.236 704.677 436.523C703.995 434.897 703.308 433.273 702.622 431.647C700.807 428.581 698.365 426.139 695.299 424.327L695.039 424.188C694.257 423.772 693.443 423.424 692.597 423.146C690.246 421.914 687.712 421.348 684.997 421.45L679.757 422.152C678.092 422.696 676.491 423.373 674.959 424.187L674.7 424.326C672.321 425.609 670.411 427.36 668.974 429.581C667.169 431.553 665.949 433.865 665.317 436.522C665.076 438.33 664.835 440.14 664.59 441.948C664.603 445.632 665.531 449.066 667.378 452.247C667.792 453.074 668.352 453.808 669.043 454.454Z" fill="#EC6640"/>
<path d="M1045.36 496.743L1046.49 497.748C1049.47 500.709 1052.98 502.758 1057.03 503.892C1060.21 504.886 1063.38 505.03 1066.56 504.318C1069.74 504.175 1072.7 503.228 1075.44 501.484C1079.03 499.36 1081.88 496.504 1084.01 492.913C1084.19 492.479 1084.39 492.088 1084.64 491.681C1087.79 486.346 1089.09 478.395 1087.16 472.408C1086.87 471.521 1086.55 470.659 1086.19 469.821C1086.16 469.595 1086.13 469.368 1086.1 469.142C1085.37 466.07 1083.96 463.393 1081.88 461.114C1078.86 457.214 1074.56 453.78 1069.61 452.655C1065.47 451.711 1061.21 451.711 1057.07 452.655C1051.45 453.935 1045.81 458.606 1042.96 463.503C1042.4 464.454 1041.89 465.457 1041.42 466.485C1040.93 467.418 1040.52 468.397 1040.18 469.423C1038.62 472.402 1037.9 475.615 1038.03 479.058C1038.33 485.698 1040.57 491.947 1045.36 496.743Z" fill="#EC6640"/>
<path d="M1179.16 690.818C1168.91 675.729 1164.34 657.566 1161.09 639.634C1159.18 629.155 1157.78 618.721 1156.8 608.429C1152.63 563.663 1156.73 520.268 1162.75 475.318C1139.12 509.894 1145.02 601.733 1142.22 630.552C1139.85 655.283 1137.47 680.387 1141.99 704.838C1146.51 729.241 1158.99 753.322 1180.18 766.269C1191.45 773.162 1205.38 776.002 1218.42 774.326C1219.77 764.638 1220.98 755.51 1221.72 747.221C1222.63 737.205 1223.49 727.176 1224.29 717.136C1206.15 717.425 1189.32 705.811 1179.16 690.818Z" fill="#CE3B17"/>
<path d="M210.051 1411.08C205.812 1365.11 201.992 1316.49 221.972 1274.9C233.106 1251.75 250.849 1232.52 268.919 1214.35C284.151 1199.08 300.452 1183.85 320.618 1176.21C365.373 1159.21 414.275 1183.48 456.005 1207.04L591.119 1283.38C593.539 1284.77 596.24 1286.54 596.568 1289.34L596.518 1290.36C610.304 1278.07 625.954 1267.59 640.022 1255.62C661.349 1237.45 680.492 1212.21 678.118 1184.32C676.858 1169.22 666.429 1153.2 651.293 1152.6C644.725 1152.36 638.435 1155.02 632.241 1157.21C627.554 1158.86 622.924 1160.74 618.336 1162.6C619.276 1160.72 620.06 1158.76 620.675 1156.74C622.281 1151.46 618.76 1145.08 613.33 1143.81C601.526 1141.05 586.137 1147.29 581.029 1158.66C580.142 1158.07 579.293 1157.37 578.5 1156.55C572.451 1150.28 560.862 1158.65 566.143 1166.08C567.492 1167.98 569.024 1169.75 570.705 1171.35C568.495 1170.78 566.281 1170 564.06 1168.99C561.516 1167.84 558.964 1166.69 556.409 1165.55C555.858 1164.78 555.148 1164.03 554.254 1163.32C544.444 1155.6 533.641 1149.33 521.744 1145.29C518.396 1144.16 507.831 1142.56 505.152 1140.2C500.777 1136.34 501.832 1129.21 499.139 1124.35C487.996 1104.24 462.371 1108.55 446.63 1120.06C445.418 1120.94 444.524 1122.05 443.919 1123.26C437.527 1121.28 431.116 1119.35 424.684 1117.5C425.479 1112.86 423.519 1107.64 419.163 1104.34C406.579 1094.83 384.33 1085.18 369.526 1094.9C363.759 1091.02 354.849 1095 354.081 1100.96C346.594 1101.08 339.732 1102.91 334.266 1107.7C316.505 1108.67 299.927 1114 284.573 1122.29C286.284 1116.29 286.708 1109.78 285.704 1103.09C284.153 1092.75 271.4 1092.72 265.046 1097.63C258.192 1102.93 251.249 1112.13 251.141 1121.2C242.521 1125.31 240.936 1139.6 247.845 1146.7C248.264 1147.13 248.739 1147.53 249.254 1147.9C233.774 1162.08 220.001 1178.7 208.003 1195.54C207.828 1195.79 207.654 1196.03 207.479 1196.28C204.113 1193.62 199.505 1194.13 195.882 1196.96C194.829 1197.78 193.958 1198.78 193.212 1199.9C185.909 1201.83 179.697 1206.61 175.769 1213.39C171.06 1221.53 170.114 1234.04 176.773 1241.45C166.877 1255.95 156.666 1270.15 145.355 1283.21C140.655 1276.25 131.533 1272.97 123.187 1278.24C118.107 1281.45 114.823 1287.56 111.302 1292.31C107.386 1297.59 103.852 1303.65 105.74 1310.51C106.453 1313.11 107.741 1315.15 109.378 1316.67C108.785 1317.1 108.191 1317.52 107.591 1317.94C96.6937 1325.58 83.9767 1332.05 70.7047 1330.98C70.6237 1330.97 70.5447 1330.96 70.4637 1330.96C70.4307 1330.65 70.3867 1330.34 70.3267 1330.03C68.5107 1320.54 58.1577 1303.38 46.4337 1304.36C46.3607 1303.96 46.2977 1303.56 46.2437 1303.16C45.4637 1297.44 37.9677 1296.81 34.3887 1300.2C29.6477 1289.34 26.9767 1277 26.1767 1265.55C23.5657 1227.69 30.0937 1189.64 36.7747 1151.78C37.3137 1153.14 38.1587 1154.39 39.2117 1155.64C41.4767 1158.33 45.2837 1158.67 48.4677 1158.08C51.1427 1157.59 53.7037 1155.47 55.0037 1153.14C55.6247 1152.03 56.0067 1150.87 56.1577 1149.7C58.3937 1148.19 59.9747 1145.41 59.8607 1142.82C59.7927 1141.37 59.4197 1139.97 58.7417 1138.69C57.9227 1137.14 55.6527 1135.17 53.8477 1134.92C51.4277 1134.59 49.3997 1134.39 46.9987 1135.1C44.9697 1135.7 43.4867 1136.62 41.9137 1137.8C40.7117 1138.74 39.6427 1139.66 38.7057 1140.82C38.7687 1140.46 38.8307 1140.11 38.8937 1139.75C0.843678 1209.47 -14.2933 1282.96 16.4437 1349.84C47.4177 1417.14 103.492 1470.05 164.875 1511.55C185.788 1525.71 207.865 1538.93 232.361 1545.27C256.813 1551.65 284.152 1550.44 305.67 1537.16C302.129 1521.78 289.898 1511.04 276.957 1501.25C272.693 1498.03 268.351 1494.9 264.218 1491.75C238.272 1472 213.029 1443.59 210.051 1411.08Z" fill="#CE3B17"/>
<path d="M1680.22 887.118C1679.48 753.12 1567.33 605.892 1610.1 487.897C1597.39 496.642 1586.85 509.236 1579.51 523.376C1579.19 523.068 1578.87 522.763 1578.54 522.464C1578.05 522.025 1577.53 521.682 1576.98 521.426C1580.12 515.017 1584.6 509.128 1590.24 504.125C1596.86 498.246 1588.32 487.49 1580.86 491.968C1554.94 507.511 1545.03 540.25 1556.31 568.123C1558.21 572.797 1562.37 575.644 1566.71 575.374C1565.83 602.869 1572.59 628.988 1576.2 657.332C1577.93 670.835 1578.8 684.693 1579.13 698.674C1576.77 696.082 1572.93 694.985 1569.79 696.812C1568.13 696.111 1566.37 695.522 1564.53 695.057C1557.46 693.276 1552.09 700.726 1555.35 706.989C1556.75 709.677 1558.36 712.225 1560.01 714.735C1552.84 736.114 1555.61 759.402 1567.58 779.488C1569.71 783.052 1573.48 784.794 1577.19 784.684C1575.85 816.945 1573.04 849.336 1567.82 881.254C1565.3 874.125 1555.52 871.853 1549.56 877.216C1529.75 895.03 1527.95 923.802 1537.47 947.424C1535.98 952.665 1534.31 957.88 1532.48 963.073C1529.56 971.368 1538.14 975.833 1544.59 973.374C1541.14 983.042 1537.36 992.603 1533.21 1002.04C1530.07 996.527 1522.07 993.846 1516.56 997.548C1511.98 1000.63 1508.58 1003.28 1505.43 1007.79C1504.39 1009.27 1503.95 1011.01 1503.98 1012.76C1498.24 1022.05 1494.47 1032.15 1492.98 1043.26C1492.02 1050.44 1493.59 1058.91 1498.74 1063.71C1482.33 1086.85 1462.68 1107.53 1439.56 1123.35C1441.07 1115.83 1434.91 1109.26 1427.04 1108.34C1412.36 1106.62 1397.89 1111.92 1386.9 1121.61C1381.2 1126.64 1376.03 1133.75 1373.7 1141.37C1369.26 1142.52 1366.76 1147.29 1367.13 1151.96C1348.1 1154.64 1328.69 1153.92 1310.38 1149.37C1315.62 1145.25 1316.7 1137.24 1311.59 1131.95C1303.1 1123.15 1291.81 1115.78 1279.07 1117.39C1277.58 1117.58 1276.13 1117.9 1274.72 1118.35C1269.9 1115.48 1262.75 1117.4 1262.69 1124.9C1262.68 1125.18 1262.69 1125.46 1262.7 1125.74C1253.92 1118.38 1246.42 1109.5 1240.41 1099.67C1243.35 1098.6 1245.88 1096.14 1247.21 1092.85C1253.76 1076.47 1251.03 1057.94 1239.37 1044.52C1238.29 1043.27 1237.08 1042.03 1235.77 1040.89C1234.56 1036.19 1228.47 1033.24 1223.93 1034.81C1225.01 1018.7 1230.05 1003.09 1239.7 989.729C1242.4 985.956 1245.48 982.184 1248.83 978.458C1221.72 959.504 1211.1 928.951 1208.49 894.905C1189.74 937.051 1159.32 976.217 1116.14 985.043C1117.71 980.024 1117.58 974.567 1114.97 969.657C1108.25 956.968 1089.69 954.304 1077.81 960.95C1072.16 964.109 1068.08 969.83 1066.61 975.867C1064.27 976.954 1062.4 979.13 1061.77 981.528C1056.49 980.061 1051.27 978.369 1046.14 976.548C1030.95 971.155 1021.6 963.5 1012.04 955.623C1012.57 952.065 1012.11 948.203 1010.81 944.618C1010.89 938.308 1007.69 932.114 1002.48 927.948C994.679 921.696 979.652 916.684 970.287 922.324C969.765 922.638 969.276 922.967 968.814 923.307C965.89 921.193 962.118 921.566 959.57 923.384C942.135 912.214 926.577 898.13 913.533 881.999C916.62 880.421 918.871 877.41 918.556 873.5C917.064 854.961 904.206 834.112 885.327 829.484C884.498 829.281 883.692 829.186 882.914 829.183C877.579 815.376 873.847 800.96 871.955 786.249C871.774 784.842 871.607 783.429 871.452 782.01C852.306 787.589 831.805 789.23 812.155 786.715C784.397 783.129 757.244 772.184 736.286 753.6C713.509 733.388 699.027 705.212 690.549 675.962C688.894 670.218 687.413 663.933 686.152 657.253C667.012 645.922 650.756 629.335 637.967 610.946C619.57 584.445 607.553 554.221 595.678 524.273C584.316 495.631 572.95 467.034 561.585 438.391C548.777 406.115 534.855 372.255 507.561 350.737C465.367 317.531 396.016 327.637 365.093 371.511C346.091 398.475 341.71 433.778 347.023 466.334C352.376 498.888 366.63 529.302 382.276 558.363C384.096 561.717 385.955 565.069 387.82 568.424C398.253 580.627 408.869 592.643 419.257 604.798C472.908 667.393 522.465 736.275 544.633 815.73C560.702 873.481 559.956 937.938 537.556 992.71C535.177 997.04 532.526 1001.09 529.496 1004.86C541.139 1005.75 553.715 1003.51 564.845 1000.11C573.441 997.503 582.267 994.45 591.118 992.169C590.154 996.329 593.129 1001.73 598.179 999.9C598.867 999.65 599.568 999.385 600.282 999.112C602.2 1009.15 611.125 1017.48 623.121 1015.95C633.691 1014.61 640.313 1005.68 641.027 996.234C655.165 1005.11 664.853 1020.69 673.547 1035.42C679.779 1045.97 685.048 1055.33 690.413 1064.2C684.176 1063.39 677.236 1069 677.777 1075.52C678.625 1085.78 682.189 1098.56 690.098 1106.21C697.502 1117.79 711.687 1125.62 725.165 1126.77C729.554 1127.14 732.491 1124.44 733.877 1120.96C747.153 1137.63 758.854 1155.56 768.746 1174.44C770.764 1178.28 772.715 1182.2 774.415 1186.22C774.016 1186.47 773.619 1186.76 773.23 1187.1C770.043 1189.84 767.398 1192.91 765.276 1196.2C757.446 1206.96 751.381 1224.7 761.594 1235.2C763.371 1240.01 765.942 1244.61 769.269 1248.77C769.584 1249.16 769.917 1249.51 770.265 1249.83C770.115 1250.25 769.964 1250.68 769.814 1251.1C760.943 1276.4 760.482 1300.16 761.149 1324.34C760.146 1324.07 759.091 1323.88 757.98 1323.77C747.76 1322.74 738.859 1331.04 735.944 1340.35C734.379 1345.36 734.606 1350.12 735.412 1355.22C736.336 1361.08 736.304 1367.35 737.704 1373.05C739.282 1379.46 748.019 1381.76 752.558 1376.97C752.634 1376.89 752.708 1376.81 752.782 1376.72C754.395 1380.54 756.659 1384.09 759.548 1387.09C759.942 1387.5 760.365 1387.86 760.81 1388.18C760.636 1389.89 760.44 1391.61 760.221 1393.34C757.897 1411.5 755.585 1429.67 753.273 1447.85C750.834 1447.17 748.105 1447.55 745.977 1449.57C742.345 1453.02 739.202 1457.01 736.695 1461.36C722.29 1468.79 721.867 1487.83 728.116 1501.88C729.519 1505.04 732.893 1505.34 735.522 1504.04C737.901 1507.01 741.111 1509.15 744.804 1510C743.074 1517.6 740.374 1524.84 735.494 1530.82C727.48 1540.65 714.954 1545.35 702.938 1549.36C695.558 1551.8 688.134 1554.12 680.675 1556.33C679.937 1550.21 675.414 1544.27 669.05 1541.33C662.496 1538.29 655.551 1536.52 648.328 1536.12C645.822 1535.98 643.267 1536.08 640.813 1536.61C637.847 1535.01 633.881 1535.39 631.295 1539.26C623.77 1550.54 629.205 1560.95 638.871 1567.34C625.72 1570.34 611.917 1572.66 598.939 1569.99C599.358 1570.31 599.822 1570.59 600.245 1570.87C641.32 1597.14 687.102 1615.96 734.749 1626.2C770.002 1633.79 810.941 1637.61 843.356 1653.4C877.731 1670.12 923.605 1716.51 895.802 1742.68C881.457 1756.24 863.014 1765.32 843.543 1768.49C835.579 1769.79 827.01 1770.3 820.77 1775.38C815.226 1779.85 814.807 1795.83 819.419 1802.53C818.164 1804.77 820.12 1807.94 822.121 1809.89C845.454 1832.8 882.944 1842.82 915.082 1836.72C934.51 1838.93 953.662 1830.27 967.593 1816.3C972.698 1811.19 977.103 1805.36 980.562 1799.08C993.51 1775.7 995.093 1747.53 991.323 1721.07C985.033 1676.78 987.689 1644.92 954.578 1614.84C927.612 1590.29 900.273 1565.42 880.292 1534.92C860.312 1504.46 848.062 1467.2 854.534 1431.29C855.758 1424.51 857.396 1417.75 859.417 1411.07C874.005 1362.81 908.625 1318.31 952.779 1293.57C966.265 1286.02 980.641 1280.31 995.607 1276.9C1030.47 1268.96 1065.94 1272 1101.19 1279.21C1111.23 1281.27 1121.26 1283.66 1131.26 1286.23C1136.2 1287.5 1141.13 1288.82 1146.05 1290.16C1158.11 1293.45 1170.1 1296.88 1181.99 1300.19C1243.01 1317.09 1305.32 1331.06 1362.79 1304.56C1382.46 1295.48 1401.48 1285.17 1419.81 1273.76C1447.12 1256.77 1472.88 1237.34 1496.94 1215.9C1552.08 1166.75 1598.24 1107.05 1633.39 1041.98C1653.23 1005.19 1669.95 966.206 1677.17 925.034C1679.35 912.542 1680.29 899.89 1680.22 887.118Z" fill="#CE3B17"/>
<path d="M962.185 895.436C961.779 893.729 960.804 892.2 959.536 890.997C959.577 891.029 959.619 891.062 959.661 891.094C959.439 890.892 959.217 890.7 958.994 890.516C958.976 890.502 958.958 890.487 958.941 890.472C957.973 889.682 956.975 889.062 955.79 888.633C955.621 888.503 955.449 888.377 955.267 888.26C954.298 887.375 953.166 886.777 951.861 886.468C950.087 885.99 948.313 885.99 946.535 886.468C945.616 886.745 944.516 887.189 943.683 887.675C943.019 888.069 941.959 888.892 941.4 889.428L941.204 889.613C939.121 891.737 938.025 894.597 937.92 897.551C937.884 898.715 938.111 899.966 938.343 901.053C938.779 903.104 940.076 905.587 941.636 907.034C942.432 907.773 943.387 908.569 944.356 909.099C945.102 909.504 946.334 910.02 947.144 910.277L947.626 910.4C948.595 910.53 949.564 910.662 950.533 910.791C952.038 910.848 953.444 910.534 954.749 909.848C955.677 909.589 956.482 909.12 957.164 908.443C957.465 908.247 957.751 908.035 958.02 907.807C958.515 907.445 958.991 907.042 959.447 906.587C960.507 905.527 961.239 904.342 961.812 902.99C962.335 901.751 962.676 900.411 962.676 899.047C962.676 898.581 962.617 897.891 962.512 897.253C962.439 896.629 962.321 896.007 962.185 895.436Z" fill="#CE3B17"/>
<path d="M1040.23 918.43C1007.26 918.43 1007.21 969.661 1040.23 969.661C1073.19 969.661 1073.25 918.43 1040.23 918.43Z" fill="#CE3B17"/>
<path d="M1128.83 965.389C1132.25 966.331 1136.6 965.448 1139.02 962.695C1140.3 961.24 1141.58 959.786 1142.86 958.331C1145.08 955.811 1145.9 952.571 1144.55 949.387C1143.99 948.043 1143.18 947.006 1142.03 946.112C1140.69 945.077 1138.82 944.211 1137.07 944.354C1135.25 944.504 1133.43 944.654 1131.61 944.804C1127.84 945.116 1124.55 946.605 1122.56 949.993C1120.86 952.902 1120.75 956.267 1122.04 959.321C1123.29 962.292 1125.66 964.518 1128.83 965.389Z" fill="#CE3B17"/>
<path d="M902.267 802.122C899.224 802.122 896.349 803.773 894.812 806.397C893.166 809.212 893.424 812.28 894.812 815.111C895.74 817.01 896.513 818.916 898.05 820.43C900.356 822.702 904.168 822.706 906.478 820.43C908.02 818.911 908.788 817.015 909.721 815.111C911.104 812.28 911.367 809.212 909.721 806.397C908.184 803.773 905.309 802.122 902.267 802.122Z" fill="#CE3B17"/>
<path d="M1175.45 923.643C1187.13 923.643 1187.15 905.487 1175.45 905.487C1163.77 905.487 1163.75 923.643 1175.45 923.643Z" fill="#CE3B17"/>
<path d="M741.832 1178.39C744.444 1180.27 747.611 1181.23 750.677 1180.67C752.752 1180.65 754.734 1180.15 756.378 1178.47C758.013 1176.79 758.351 1174.9 758.225 1172.91C758.337 1171.97 758.3 1171.03 758.196 1170.06C758.136 1169.28 758.196 1168.52 758.183 1167.74C758.133 1164.99 756.873 1162.81 755.763 1160.42C754.795 1158.34 752.548 1156.8 750.537 1155.95C748.367 1155.03 745.729 1154.65 743.423 1155.4C741.622 1155.98 739.999 1156.93 738.602 1158.21C736.41 1160.22 735.664 1163.11 735.404 1165.93C735.209 1168.06 735.504 1170.15 736.337 1172.14C737.566 1175.04 739.376 1176.61 741.832 1178.39Z" fill="#CE3B17"/>
<path d="M753.416 1261.73C752.106 1261.32 750.796 1261.26 749.487 1261.55C748.6 1261.56 747.772 1261.78 747.003 1262.23C745.784 1262.62 744.724 1263.3 743.833 1264.26C743.319 1264.93 742.81 1265.59 742.295 1266.25C741.963 1267.04 741.631 1267.82 741.304 1268.61C740.89 1269.92 740.831 1271.23 741.127 1272.53C741.186 1273.85 741.577 1275.06 742.296 1276.19L743.183 1277.6C745.061 1280.57 748.364 1282.83 752.011 1282.66C754.722 1282.54 757.282 1281.62 759.243 1279.67C760.239 1278.74 760.944 1277.65 761.358 1276.38C761.995 1275.16 762.29 1273.85 762.236 1272.44C762.236 1268.74 760.248 1265.56 757.174 1263.61C756.705 1263.31 756.237 1263.02 755.769 1262.72C754.985 1262.39 754.198 1262.06 753.416 1261.73Z" fill="#CE3B17"/>
<path d="M672.427 1039.9C669.252 1038.37 666.082 1037.74 662.589 1038.71C660.481 1039.29 659.111 1040.24 657.62 1041.42C656.931 1041.92 656.26 1042.45 655.621 1043.02C653.551 1044.84 652.082 1048.54 652.2 1051.26C652.296 1053.36 652.805 1055.55 653.891 1057.38C654.545 1058.84 654.911 1059.23 656.308 1061C657.044 1061.57 657.781 1062.14 658.523 1062.71C659.774 1063.51 661.129 1063.94 662.585 1064.01C664.914 1064.32 667.516 1064.02 669.553 1062.71C671.131 1061.69 672.455 1060.37 673.473 1058.79C674.06 1057.88 674.442 1056.87 674.662 1055.81C675.838 1054.62 676.785 1053.15 677.157 1051.52C677.567 1049.71 677.567 1047.86 677.157 1046.05C676.638 1043.79 674.546 1040.93 672.427 1039.9Z" fill="#CE3B17"/>
<path d="M569.892 1004.2C568.857 1003.22 567.616 1002.45 566.203 1002.13C563.701 1001.56 561.582 1001.99 559.258 1003.04C553.787 1005.51 552.049 1012.41 553.409 1017.78C554.964 1023.93 562.091 1028.2 568.222 1026.3C573.48 1024.67 576.9 1019.72 576.618 1014.23C576.403 1009.94 573.838 1005.7 569.892 1004.2ZM560.597 1014.54C560.615 1014.56 560.634 1014.59 560.654 1014.61C560.67 1014.95 560.644 1015.1 560.597 1014.54ZM560.549 1012.87C560.551 1012.75 560.557 1012.64 560.568 1012.54C560.618 1012.4 560.676 1012.25 560.75 1012.08L560.549 1012.87Z" fill="#CE3B17"/>
<path d="M731.708 1412.12C730.903 1412.93 730.121 1413.83 729.593 1414.83L729.438 1415.14C728.569 1416.9 727.905 1418.83 727.946 1420.83C727.951 1422.79 728.446 1424.62 729.429 1426.31C730.111 1427.58 731.044 1428.59 732.226 1429.36C733.277 1430.32 734.509 1430.97 735.923 1431.3C737.847 1431.82 739.771 1431.82 741.699 1431.3L741.9 1431.24C741.929 1431.24 741.955 1431.24 741.983 1431.23C742.288 1431.25 742.593 1431.26 742.895 1431.25C743.836 1431.12 744.782 1430.99 745.728 1430.87C747.116 1430.54 748.325 1429.9 749.357 1428.96C751.122 1427.59 752.673 1425.65 753.182 1423.41C753.31 1422.47 753.437 1421.52 753.564 1420.58C753.555 1418.65 753.068 1416.85 752.104 1415.19L751.881 1414.81C751.522 1414.26 750.558 1412.97 750.089 1412.5L749.771 1412.22C749.116 1411.66 748.175 1410.85 747.429 1410.42C746.92 1410.13 746.333 1409.93 745.814 1409.71C745.404 1409.54 744.708 1409.19 744.167 1409.04L743.822 1408.97C742.853 1408.78 741.603 1408.57 740.611 1408.55L740.256 1408.56C739.424 1408.59 737.818 1408.77 737.013 1408.99C736.263 1409.21 734.839 1409.8 734.17 1410.2C733.418 1410.65 732.327 1411.5 731.708 1412.12Z" fill="#CE3B17"/>
<path d="M702.977 1497.79C700.851 1498.33 699.067 1499.42 697.553 1500.85C696.282 1501.78 695.233 1502.94 694.417 1504.32C693.576 1505.64 693.121 1507.06 693.052 1508.59C692.707 1510.12 692.774 1511.65 693.256 1513.18C693.738 1514.9 694.562 1516.41 695.728 1517.73C696.128 1518.29 696.569 1518.84 697.004 1519.26C697.859 1520.11 698.906 1520.97 699.961 1521.53C702.081 1522.66 704.286 1523.1 706.673 1522.78C708.884 1522.48 711.168 1521.58 712.719 1519.88C713.956 1518.54 714.866 1516.97 715.43 1515.24C715.799 1514.1 715.881 1512.9 715.762 1511.71C715.837 1511.18 715.867 1510.65 715.844 1510.12C715.817 1509.53 715.754 1508.92 715.654 1508.3C715.688 1508.04 715.724 1507.79 715.758 1507.53C715.758 1505.28 714.947 1503.17 713.587 1501.41C711.104 1498.19 706.957 1496.78 702.977 1497.79Z" fill="#CE3B17"/>
<path d="M1248.91 1089.9L1248.69 1090.41C1247.79 1092.5 1247.23 1093.46 1247.22 1095.81C1247.22 1097.3 1247.48 1098.33 1247.9 1099.59C1248.23 1100.38 1248.56 1101.16 1248.89 1101.95C1249.51 1103.1 1250.36 1104.02 1251.43 1104.71C1252.05 1105.32 1252.77 1105.75 1253.61 1105.98C1254.78 1106.6 1256.05 1106.88 1257.41 1106.83C1258.28 1106.71 1259.16 1106.6 1260.03 1106.48C1260.82 1106.15 1261.6 1105.82 1262.38 1105.49C1263.54 1104.86 1264.45 1104.02 1265.15 1102.95C1266.02 1101.99 1266.61 1100.88 1266.92 1099.59C1267.34 1098.34 1267.6 1097.28 1267.59 1095.81C1267.59 1093.41 1267.08 1092.62 1266.16 1090.49L1265.91 1089.9C1265.03 1088.42 1263.85 1087.24 1262.38 1086.37C1260.84 1085.48 1259.18 1085.03 1257.41 1085.03C1255.63 1085.03 1253.98 1085.48 1252.44 1086.37C1250.96 1087.24 1249.79 1088.42 1248.91 1089.9Z" fill="#CE3B17"/>
<path d="M1331.71 1144.36C1331.69 1144.38 1331.68 1144.41 1331.66 1144.44C1333.36 1145.05 1335.06 1145.11 1336.76 1144.95C1338.25 1145 1339.74 1144.95 1341.18 1144.45C1341.49 1144.42 1341.79 1144.39 1342.1 1144.36C1345.02 1144.06 1347.96 1143.34 1350.05 1141.06C1351.76 1139.21 1352.81 1137.12 1353.14 1134.61C1353.46 1132.21 1353.16 1129.53 1351.81 1127.44C1350.32 1125.13 1347.92 1122.72 1345.09 1122.27C1340.74 1121.58 1335.95 1120.1 1331.66 1121.38C1325.94 1123.08 1322.31 1128.58 1323.1 1134.5C1323.76 1139.4 1327.19 1143.06 1331.71 1144.36Z" fill="#CE3B17"/>
<path d="M1446.8 1091.72C1447.43 1091.82 1447.97 1091.9 1448.48 1091.96C1452.07 1092.69 1456.07 1092.35 1459.18 1090.3C1461.81 1088.56 1464.15 1086.01 1464.87 1082.83C1465.25 1081.13 1465.3 1079.54 1465.08 1078C1466.44 1074.99 1466.65 1072.53 1466.19 1069.22C1465.92 1067.34 1463.89 1064.98 1462.27 1064.12C1460.17 1063.02 1458.03 1062.76 1455.7 1063.26C1458.96 1062.57 1456.4 1063.1 1455.28 1063.09C1454.4 1063.09 1453.51 1063.17 1452.62 1063.3C1448.02 1063.16 1443.65 1065.54 1440.77 1069.26C1437.67 1073.28 1436.77 1077.71 1437.79 1082.71C1438.6 1086.69 1442.72 1091.03 1446.8 1091.72Z" fill="#CE3B17"/>
<path d="M1550.39 815.973C1550.17 816.091 1549.96 816.204 1549.73 816.326C1544.11 819.419 1541.81 827.629 1545.34 833.093C1549.04 838.828 1556.06 840.746 1562.1 837.489C1563.1 836.948 1563.95 836.318 1564.86 835.615C1566.55 834.314 1567.71 832.807 1568.53 830.847C1568.67 830.521 1568.79 830.194 1568.9 829.867C1569.6 828.676 1570.14 827.347 1570.47 825.974C1572.51 821.514 1570.93 816.008 1567.1 813.047C1565.26 811.633 1562.9 810.609 1560.52 810.716C1557.51 810.85 1555.14 811.949 1552.84 813.898C1552.02 814.588 1551.2 815.28 1550.39 815.973ZM1561.47 814.447C1561.24 814.477 1561.01 814.513 1560.78 814.546C1560.74 814.55 1560.7 814.554 1560.65 814.557C1560.92 814.521 1561.2 814.484 1561.47 814.447Z" fill="#CE3B17"/>
<path d="M1545.92 658.387C1545.7 662.253 1547.37 666.571 1550.27 669.155C1553.2 671.766 1556.71 672.912 1560.6 672.391C1563.4 672.013 1565.96 670.899 1567.98 668.832C1570.22 666.54 1571.4 663.421 1571.51 660.247C1571.63 656.979 1570.29 654.168 1568.06 652.226C1568.02 652.142 1567.99 652.058 1567.96 651.974C1566.01 647.374 1560.47 644.122 1555.44 645.834C1552.36 646.882 1549.61 648.663 1547.92 651.54C1546.63 653.736 1546.07 655.851 1545.92 658.387ZM1554.07 653.377L1554.07 653.379C1554.07 653.382 1554.07 653.385 1554.06 653.388C1554.07 653.384 1554.07 653.381 1554.07 653.377Z" fill="#CE3B17"/>
<path d="M1576.07 452.212C1575.9 452.672 1575.83 453.152 1575.85 453.654C1575.71 454.15 1575.65 454.65 1575.68 455.157C1575.63 456.535 1575.91 457.82 1576.54 459.014C1576.94 460.255 1577.63 461.329 1578.61 462.236C1579.29 462.757 1579.96 463.28 1580.64 463.801C1582.2 464.706 1583.88 465.163 1585.69 465.167L1585.84 465.172L1588.54 464.811C1589.08 464.642 1589.65 464.368 1590.13 464.163C1591.01 463.917 1591.77 463.473 1592.42 462.83L1593.55 461.952L1593.96 461.611C1594.46 461.202 1594.97 460.79 1595.47 460.379C1596.5 459.419 1597.23 458.282 1597.66 456.966C1598.32 455.704 1598.63 454.341 1598.57 452.882C1598.63 451.42 1598.32 450.058 1597.66 448.795C1597.23 447.478 1596.5 446.341 1595.47 445.382C1593.45 443.527 1590.79 442.148 1587.97 442.276C1587.03 442.401 1586.09 442.528 1585.15 442.653C1583.35 443.158 1581.79 444.067 1580.47 445.382C1580.06 445.88 1579.65 446.38 1579.23 446.881L1578.96 447.215C1578.4 447.904 1577.65 448.711 1577.2 449.478C1576.86 450.302 1576.51 451.127 1576.16 451.95L1576.07 452.212Z" fill="#CE3B17"/>
<path d="M1618.01 435.467C1630.76 435.467 1630.79 415.655 1618.01 415.655C1605.27 415.655 1605.25 435.467 1618.01 435.467Z" fill="#CE3B17"/>
<path d="M1568.84 417.42C1579.46 417.42 1579.48 400.919 1568.84 400.919C1558.22 400.919 1558.21 417.42 1568.84 417.42Z" fill="#CE3B17"/>
<path d="M53.5778 1266C51.7408 1264.31 49.3247 1263.06 46.7557 1263.17C45.9007 1263.29 45.0458 1263.4 44.1908 1263.52C42.5538 1263.97 41.1348 1264.8 39.9288 1266C39.1648 1266.61 38.3958 1267.22 37.6318 1267.82L36.4808 1268.74C34.9748 1270.08 34.2838 1271.98 33.6018 1273.8C32.3968 1277.02 33.8248 1281.1 36.1488 1283.43C38.4728 1285.75 42.5477 1287.18 45.7727 1285.97C47.5917 1285.29 49.4928 1284.6 50.8348 1283.09L51.7488 1281.94L53.5767 1279.64C54.5177 1278.77 55.1818 1277.73 55.5738 1276.54C56.1788 1275.39 56.4558 1274.15 56.4058 1272.82C56.4068 1270.45 55.3518 1267.63 53.5778 1266Z" fill="#CE3B17"/>
<path d="M85.9746 1291.5C85.8476 1291.07 85.6786 1290.66 85.4656 1290.26C85.0746 1289.07 84.4106 1288.04 83.4736 1287.17C82.8276 1286.67 82.1776 1286.17 81.5266 1285.67C80.7626 1285.25 79.9666 1284.92 79.1436 1284.67C76.9196 1284.06 75.9866 1284.32 73.7766 1284.65L72.8256 1284.8L72.3526 1284.87C71.7116 1284.97 71.5426 1285.13 70.7066 1285.48C69.3286 1285.93 68.1366 1286.69 67.1266 1287.78C66.7136 1288.12 66.3766 1288.54 66.1166 1289.03C65.1346 1290.1 64.4706 1291.37 64.1246 1292.82L64.0116 1293.11C63.4886 1295.06 63.4886 1297.01 64.0116 1298.96C64.5346 1300.82 65.4756 1302.43 66.8406 1303.8C68.2096 1305.17 69.8236 1306.11 71.6886 1306.63C73.6356 1307.15 75.5816 1307.15 77.5286 1306.63L77.8286 1306.52C78.7156 1306.15 79.6026 1305.77 80.4896 1305.4C81.4166 1304.91 82.2086 1304.29 82.8636 1303.52C83.4416 1302.77 84.0236 1302.01 84.6056 1301.26C85.5066 1299.86 85.6476 1299.11 85.8476 1297.82L85.9886 1296.87C86.4026 1295.55 86.4616 1294.23 86.1666 1292.91C86.1206 1292.44 86.0526 1291.97 85.9746 1291.5Z" fill="#CE3B17"/>
<path d="M144.761 1233.73C142.156 1235.1 140.035 1237.08 138.259 1239.36C133.226 1244.19 132.804 1251.96 136.224 1257.83C138.58 1261.87 143.246 1263.99 147.808 1263.38C149.9 1263.1 151.637 1262.38 153.307 1261.09C155.008 1259.78 155.993 1258.35 156.83 1256.56C156.707 1256.84 156.587 1257.13 156.464 1257.42C157.458 1255.33 158.076 1253.76 158.448 1251.84C158.413 1252.11 158.378 1252.37 158.342 1252.64C158.404 1252.19 158.476 1251.75 158.545 1251.31C158.569 1251.16 158.59 1251.02 158.612 1250.87C162.331 1247.05 162.283 1240.68 159.129 1236.6C155.668 1232.12 149.727 1231.1 144.761 1233.73Z" fill="#CE3B17"/>
<path d="M230.768 1143.81C228.453 1138.32 222.867 1135.96 217.16 1137.13C210.185 1138.55 204.349 1143.69 203.162 1150.66C201.978 1154.92 203.605 1159.69 206.608 1162.77C211.32 1167.62 218.788 1169.65 224.823 1165.86C229.129 1163.16 231.338 1158.29 230.467 1153.48C231.913 1150.51 232.082 1146.93 230.768 1143.81Z" fill="#CE3B17"/>
<path d="M328.6 1080.08C328.555 1078.8 328.231 1077.53 327.54 1076.4C327.343 1076.08 327.126 1075.77 326.896 1075.47C325.855 1073.83 324.499 1072.51 322.814 1071.51C321.441 1070.63 319.958 1070.16 318.366 1070.09C316.779 1069.73 315.192 1069.8 313.599 1070.3C311.575 1070.87 309.815 1071.9 308.323 1073.38C307.072 1074.38 306.103 1075.76 305.298 1077.13C303.802 1079.69 303.443 1081.92 303.215 1084.83C302.951 1088.14 304.752 1091.41 306.917 1093.77C308.495 1095.34 310.356 1096.42 312.498 1097.02C314.176 1097.55 315.859 1097.62 317.537 1097.25C319.22 1097.17 320.789 1096.67 322.24 1095.75C323.714 1094.95 324.896 1093.87 325.788 1092.49C326.907 1091.27 327.657 1089.84 328.048 1088.19C328.412 1086.84 328.555 1085.49 328.481 1084.14C328.716 1082.81 328.793 1081.42 328.6 1080.08Z" fill="#CE3B17"/>
<path d="M412.09 1063.61C411.576 1061.77 410.648 1060.18 409.307 1058.83C407.956 1057.49 406.359 1056.56 404.522 1056.04C403.295 1055.71 402.068 1055.59 400.84 1055.69C400.681 1055.68 400.521 1055.69 400.357 1055.69C399.284 1055.84 398.214 1055.98 397.14 1056.13C396.103 1056.44 395.116 1056.86 394.175 1057.39L393.329 1057.86C389.664 1059.88 387.002 1064.33 387.189 1068.55C387.339 1069.65 387.485 1070.75 387.635 1071.85C388.222 1073.95 389.286 1075.77 390.818 1077.31C391.942 1078.52 393.27 1079.38 394.807 1079.87C396.285 1080.65 397.873 1081.01 399.578 1080.94C403.863 1080.94 408.184 1078.6 410.28 1074.81L410.75 1073.96C411.018 1073.48 411.235 1072.97 411.399 1072.44C412.154 1071 412.504 1069.44 412.441 1067.78C412.434 1067.73 412.426 1067.67 412.42 1067.62C412.56 1066.28 412.451 1064.95 412.09 1063.61Z" fill="#CE3B17"/>
<path d="M530.386 1111.16C523.182 1107.13 512.966 1105.59 505.771 1110.52C498.394 1115.56 499.153 1127.21 508.295 1129.86C510.036 1130.36 511.76 1130.71 513.414 1131.06C517.614 1138.37 525.318 1142.42 534.147 1143.17C541.024 1143.74 546.791 1135.71 544.663 1129.36C542.052 1121.59 537.722 1115.27 530.386 1111.16Z" fill="#CE3B17"/>
<path d="M456.175 1076.04C454.419 1074.71 452.273 1073.77 450.046 1073.91C445.62 1074.18 442.259 1076.24 439.799 1079.87C436.506 1084.74 437.343 1091.59 441.473 1095.7C444.302 1098.51 448.282 1100.25 452.316 1100.12C455.936 1100 459.052 1098.81 462.208 1097.13C464.546 1095.87 466.811 1092.96 467.402 1090.37C467.98 1087.84 467.848 1085.4 466.834 1083.01C465.045 1078.77 460.73 1075.92 456.175 1076.04Z" fill="#CE3B17"/>
<path d="M651.974 1132.84C651.751 1132.26 651.478 1131.68 651.155 1131.13C650.568 1130.36 649.977 1129.6 649.39 1128.84C647.98 1127.44 646.316 1126.47 644.401 1125.93C642.895 1125.46 641.395 1125.39 639.889 1125.73C638.388 1125.79 636.987 1126.24 635.686 1127.07C634.367 1127.78 633.312 1128.75 632.516 1129.98C631.516 1131.07 630.842 1132.35 630.492 1133.83C629.951 1135.83 629.951 1137.83 630.492 1139.84C630.811 1140.7 631.27 1141.98 631.734 1142.78C631.998 1143.24 632.526 1143.83 632.753 1144.12C633.24 1144.75 633.381 1145.02 633.808 1145.44C634.568 1146.02 635.323 1146.61 636.078 1147.19L636.282 1147.33C637.565 1148.14 638.952 1148.59 640.439 1148.65C641.926 1148.99 643.413 1148.92 644.901 1148.45C645.792 1148.08 646.684 1147.7 647.571 1147.33C648.876 1146.62 649.922 1145.66 650.709 1144.45C651.405 1143.75 651.882 1142.93 652.151 1141.98C652.852 1140.64 653.17 1139.21 653.111 1137.67C653.035 1135.96 652.669 1134.33 651.974 1132.84Z" fill="#CE3B17"/>
<path d="M65.0937 1212.07C64.9577 1211.05 64.8207 1210.02 64.6797 1209C64.2927 1208.08 63.9067 1207.16 63.5157 1206.24C62.7927 1204.89 61.8007 1203.81 60.5417 1203C59.8227 1202.28 58.9727 1201.79 57.9947 1201.51C56.6167 1200.79 55.1337 1200.46 53.5417 1200.52L52.6687 1200.52C46.9107 1200.5 41.9627 1205.42 41.9847 1211.2V1212.07C42.1257 1213.1 42.2617 1214.12 42.3987 1215.14C42.7897 1216.06 43.1767 1216.98 43.5627 1217.9C44.2907 1219.25 45.2817 1220.33 46.5417 1221.14C47.2607 1221.86 48.1107 1222.36 49.0887 1222.63C49.9887 1223.15 50.9627 1223.42 52.0047 1223.42C53.0277 1223.69 54.0507 1223.69 55.0747 1223.42C56.1207 1223.42 57.0897 1223.15 57.9947 1222.63C59.4227 1222.16 60.6647 1221.37 61.7107 1220.24C62.3157 1219.46 62.9157 1218.68 63.5157 1217.9C63.9067 1216.98 64.2937 1216.06 64.6797 1215.14C64.8207 1214.12 64.9577 1213.1 65.0937 1212.07Z" fill="#CE3B17"/>
<path d="M81.2177 1236.5C80.7637 1236.28 80.2787 1236.1 79.7507 1235.94C79.3887 1235.78 79.0167 1235.64 78.6157 1235.55C78.3507 1235.49 78.0807 1235.44 77.8067 1235.39C76.6787 1234.96 75.4497 1234.85 74.2487 1235.01C72.3987 1235.26 70.5277 1236.26 69.2027 1237.69C68.9737 1237.87 68.7437 1238.04 68.5137 1238.22C67.5037 1239.16 66.7857 1240.27 66.3667 1241.56C65.4567 1243.72 65.2477 1246.01 65.8437 1248.32C66.9447 1252.58 70.0057 1255.84 74.2267 1257.15C76.6597 1257.91 79.5707 1257.98 82.0267 1257.21C87.0887 1255.61 90.3367 1250.88 89.6217 1245.57C89.0447 1241.26 85.5907 1237.27 81.2177 1236.5ZM78.7297 1235.84C78.7317 1235.84 78.7327 1235.84 78.7327 1235.84C78.7307 1235.84 78.7297 1235.84 78.7297 1235.84Z" fill="#CE3B17"/>
<path d="M632.612 1061.23L633.026 1061.03C633.772 1060.68 634.136 1060.45 634.914 1059.68C635.655 1058.99 636.183 1058.17 636.488 1057.23C636.965 1056.32 637.184 1055.34 637.143 1054.29C637.143 1052.23 636.283 1050.4 634.914 1048.91C633.963 1047.97 632.844 1047.31 631.553 1046.95C630.88 1046.86 630.207 1046.77 629.529 1046.68C627.5 1046.59 625.599 1047.58 624.148 1048.91C623.202 1049.86 622.552 1050.98 622.188 1052.27C621.87 1053.28 621.824 1054.29 622.051 1055.31C622.096 1056.32 622.397 1057.26 622.956 1058.14C623.634 1059.28 624.544 1060.19 625.685 1060.87L626.554 1061.28C627.018 1061.5 627.495 1061.7 627.977 1061.88C629.014 1062.16 630.046 1062.16 631.079 1061.88C631.589 1061.72 632.125 1061.46 632.612 1061.23Z" fill="#CE3B17"/>
<path d="M721.292 1216.04C722.165 1217.51 723.339 1218.69 724.812 1219.56C726.345 1220.45 727.997 1220.89 729.771 1220.9C731.54 1220.89 733.195 1220.45 734.724 1219.56C736.202 1218.69 737.374 1217.51 738.248 1216.04L738.763 1214.83C739.704 1213.2 740.176 1211.45 740.185 1209.57C740.176 1207.69 739.704 1205.94 738.763 1204.31C736.907 1201.15 733.442 1199.15 729.771 1199.15C726.096 1199.15 722.629 1201.15 720.773 1204.31C719.831 1205.94 719.359 1207.69 719.354 1209.57C719.359 1211.45 719.831 1213.2 720.773 1214.83L721.292 1216.04Z" fill="#CE3B17"/>
<path d="M688.4 1319.52C690.005 1321.45 692.971 1321.39 695.004 1320.38C697.715 1319.02 699.721 1315.47 701.558 1313.13C703.9 1310.15 705.269 1306.99 704.205 1303.12C703.25 1299.66 700.476 1296.89 697.019 1295.94C689.41 1293.84 682.346 1301.03 684.361 1308.59C685.335 1312.24 685.939 1316.58 688.4 1319.52Z" fill="#CE3B17"/>
<path d="M697.06 1379.54C695.513 1380.46 694.286 1381.69 693.367 1383.24C692.439 1384.84 691.971 1386.57 691.966 1388.43C691.693 1391.02 691.133 1393.71 691.879 1396.26C692.661 1398.94 694.472 1400.93 697.01 1402.01C699.366 1403 702.718 1403.21 704.901 1401.56C706.506 1400.34 707.58 1399.44 708.676 1397.72C708.949 1397.29 709.199 1396.85 709.458 1396.42C710.017 1395.48 710.576 1394.55 711.136 1393.62C714.565 1387.91 711.313 1380.25 704.987 1378.51C702.413 1377.8 699.366 1378.2 697.06 1379.54Z" fill="#CE3B17"/>
<path d="M650.194 1465.55C650.631 1467.1 651.413 1468.44 652.545 1469.58C653.164 1470.06 653.778 1470.53 654.396 1471.01C655.819 1471.84 657.361 1472.26 659.008 1472.26C660.268 1472.31 661.441 1472.04 662.533 1471.47C663.666 1471.1 664.648 1470.47 665.476 1469.58C666.367 1468.75 666.995 1467.77 667.364 1466.64C667.937 1465.55 668.201 1464.38 668.151 1463.12C668.042 1462.31 667.937 1461.5 667.828 1460.69C667.391 1459.14 666.609 1457.79 665.476 1456.65C664.858 1456.18 664.244 1455.7 663.625 1455.23C662.197 1454.4 660.66 1453.98 659.009 1453.98C657.754 1453.93 656.58 1454.19 655.489 1454.76C654.356 1455.13 653.374 1455.76 652.546 1456.65C651.654 1457.48 651.027 1458.46 650.659 1459.6C650.086 1460.69 649.822 1461.86 649.868 1463.12C649.976 1463.93 650.085 1464.74 650.194 1465.55Z" fill="#CE3B17"/>
<path d="M615.769 1505.78C604.908 1505.78 604.89 1522.66 615.769 1522.66C626.635 1522.66 626.653 1505.78 615.769 1505.78Z" fill="#CE3B17"/>
<path d="M1084.44 899.56C1084 899.401 1083.01 898.951 1084.73 899.726C1082.08 898.535 1077.95 898.668 1076.58 901.864C1075.51 904.341 1074.99 906.267 1075.44 909.023C1075.71 910.647 1076.27 912.148 1077.07 913.596C1078.86 916.814 1081.49 919.224 1084.45 921.337C1089.34 924.825 1096.4 921.59 1098.5 916.6C1099.58 914.049 1099.58 911.52 1098.5 908.968C1097.41 906.371 1095.04 903.728 1092.09 903.23C1091.73 903.172 1090.32 902.632 1089.68 902.526L1088.92 902.071C1088.24 901.623 1087.58 901.164 1086.9 900.727C1086.1 900.211 1085.44 899.922 1084.44 899.56ZM1090.11 902.778L1089.98 902.701C1090.55 902.959 1091.17 903.341 1090.11 902.778Z" fill="#CE3B17"/>
<path d="M955.798 868.981C967.728 868.981 967.746 850.442 955.798 850.442C943.872 850.442 943.85 868.981 955.798 868.981Z" fill="#CE3B17"/>
<path d="M939.565 818.252C940.225 819.369 941.112 820.256 942.226 820.915L943.09 821.324C943.545 821.54 944.006 821.734 944.474 821.909C945.474 822.179 946.474 822.179 947.47 821.909C947.97 821.75 948.485 821.497 948.958 821.277L949.371 821.079C950.103 820.733 950.464 820.513 951.223 819.756C951.946 819.083 952.456 818.287 952.756 817.366C953.22 816.481 953.433 815.528 953.396 814.507C953.396 812.494 952.556 810.709 951.223 809.258C950.296 808.337 949.203 807.7 947.948 807.348C947.288 807.26 946.629 807.173 945.974 807.085C943.995 806.996 942.14 807.961 940.726 809.259C939.802 810.185 939.171 811.277 938.817 812.534C938.508 813.521 938.461 814.508 938.684 815.495C938.729 816.48 939.02 817.401 939.565 818.252Z" fill="#CE3B17"/>
<path d="M1038.35 898.273C1050.03 898.273 1050.05 880.117 1038.35 880.117C1026.67 880.117 1026.65 898.273 1038.35 898.273Z" fill="#CE3B17"/>
<path d="M1158.24 881.532C1168.62 881.532 1168.64 865.413 1158.24 865.413C1147.87 865.413 1147.86 881.532 1158.24 881.532Z" fill="#CE3B17"/>
<path d="M1282.47 1086.38C1282.93 1088.03 1283.77 1089.47 1284.98 1090.69C1285.64 1091.2 1286.3 1091.71 1286.96 1092.22C1288.49 1093.11 1290.13 1093.55 1291.9 1093.56C1293.25 1093.61 1294.5 1093.33 1295.67 1092.71C1296.88 1092.32 1297.93 1091.65 1298.82 1090.69C1299.77 1089.81 1300.44 1088.76 1300.84 1087.55C1301.45 1086.38 1301.73 1085.13 1301.68 1083.78C1301.56 1082.91 1301.45 1082.05 1301.33 1081.18C1300.86 1079.52 1300.03 1078.09 1298.82 1076.87C1298.16 1076.36 1297.5 1075.85 1296.83 1075.34C1295.31 1074.45 1293.66 1074.01 1291.9 1074C1290.55 1073.95 1289.3 1074.23 1288.13 1074.84C1286.92 1075.24 1285.87 1075.91 1284.99 1076.86C1284.03 1077.75 1283.36 1078.8 1282.96 1080.01C1282.35 1081.18 1282.07 1082.43 1282.12 1083.78C1282.24 1084.65 1282.36 1085.51 1282.47 1086.38Z" fill="#CE3B17"/>
<path d="M1362.66 1109.54C1375.57 1109.54 1375.59 1089.47 1362.66 1089.47C1349.75 1089.47 1349.72 1109.54 1362.66 1109.54Z" fill="#CE3B17"/>
<path d="M1407.86 1032.63C1420.45 1032.63 1420.47 1013.07 1407.86 1013.07C1395.28 1013.07 1395.26 1032.63 1407.86 1032.63Z" fill="#CE3B17"/>
<path d="M1451.81 1031.26C1452.26 1032.86 1453.07 1034.25 1454.24 1035.43C1454.88 1035.93 1455.52 1036.42 1456.16 1036.91C1457.63 1037.77 1459.22 1038.2 1460.93 1038.21C1462.23 1038.25 1463.45 1037.98 1464.58 1037.39C1465.75 1037.01 1466.76 1036.36 1467.62 1035.43C1468.54 1034.58 1469.2 1033.56 1469.58 1032.39C1470.17 1031.26 1470.44 1030.05 1470.39 1028.75C1470.28 1027.91 1470.17 1027.07 1470.06 1026.23C1469.61 1024.63 1468.79 1023.23 1467.62 1022.05C1466.98 1021.56 1466.34 1021.07 1465.71 1020.57C1464.23 1019.72 1462.64 1019.29 1460.93 1019.28C1459.63 1019.23 1458.41 1019.5 1457.28 1020.1C1456.11 1020.48 1455.1 1021.13 1454.24 1022.05C1453.32 1022.91 1452.67 1023.93 1452.28 1025.1C1451.69 1026.23 1451.42 1027.44 1451.47 1028.75C1451.59 1029.58 1451.69 1030.42 1451.81 1031.26Z" fill="#CE3B17"/>
<path d="M1482.55 922.686C1495.3 922.686 1495.32 902.874 1482.55 902.874C1469.81 902.874 1469.78 922.686 1482.55 922.686Z" fill="#CE3B17"/>
<path d="M1514 880.817C1503.22 880.817 1503.2 897.573 1514 897.573C1524.78 897.573 1524.8 880.817 1514 880.817Z" fill="#CE3B17"/>
<path d="M1509.33 776.809C1512.05 778.403 1515.52 778.403 1518.24 776.809C1520.85 775.278 1522.71 772.27 1522.61 769.191C1522.56 767.883 1522.52 766.58 1522.44 765.275C1522.29 762.889 1521.26 760.767 1519.14 759.526C1517.14 758.357 1514.41 758.262 1512.42 759.526C1511.38 760.188 1510.35 760.877 1509.33 761.573C1506.71 763.354 1504.96 765.916 1504.96 769.191C1504.96 772.302 1506.65 775.237 1509.33 776.809Z" fill="#CE3B17"/>
<path d="M1529.72 718.776C1540.59 718.776 1540.6 701.893 1529.72 701.893C1518.86 701.893 1518.84 718.776 1529.72 718.776Z" fill="#CE3B17"/>
<path d="M1535.62 665.059C1525.41 665.059 1525.39 680.923 1535.62 680.923C1545.83 680.923 1545.84 665.059 1535.62 665.059Z" fill="#CE3B17"/>
<path d="M1539.35 570.743C1543.68 571.614 1548.19 569.497 1549.43 565.024C1550.58 560.838 1548.02 556.019 1543.71 554.954C1543.69 554.951 1543.03 554.759 1542.58 554.631L1541.92 554.239C1541.42 553.797 1541 553.302 1540.56 552.812C1540.57 552.82 1539.89 552.088 1539.6 551.791C1539.25 551.334 1538.9 550.877 1538.54 550.419C1538.52 550.391 1538.5 550.36 1538.48 550.326C1538.39 550.192 1537.7 549.06 1537.86 549.398C1537.03 547.76 1536.87 546.539 1535.98 544.81C1534.88 542.65 1531.43 541.624 1529.4 543.084C1524.54 546.586 1523.58 553.411 1525.4 558.869C1527.41 564.932 1533.15 569.492 1539.35 570.743ZM1542.25 554.543C1542.29 554.572 1542.29 554.572 1542.25 554.543H1542.25ZM1542.25 554.537L1542.25 554.536C1542.2 554.496 1542.11 554.415 1541.97 554.291C1541.96 554.28 1541.95 554.267 1541.93 554.255C1542.09 554.399 1542.2 554.493 1542.25 554.537Z" fill="#CE3B17"/>
<path d="M1563.14 473.727C1574.82 473.727 1574.84 455.571 1563.14 455.571C1551.46 455.57 1551.43 473.727 1563.14 473.727Z" fill="#CE3B17"/>
<path d="M1632.27 392.576C1632.73 394.245 1633.58 395.692 1634.8 396.919C1635.46 397.433 1636.13 397.945 1636.79 398.459C1638.33 399.348 1639.98 399.796 1641.76 399.803C1643.11 399.853 1644.38 399.571 1645.55 398.955C1646.77 398.559 1647.82 397.879 1648.71 396.92C1649.67 396.028 1650.36 394.973 1650.75 393.752C1651.36 392.581 1651.65 391.317 1651.6 389.961C1651.48 389.088 1651.36 388.217 1651.25 387.343C1650.78 385.676 1649.94 384.23 1648.71 383.002C1648.05 382.488 1647.39 381.974 1646.72 381.462C1645.19 380.571 1643.53 380.123 1641.75 380.118C1640.4 380.066 1639.13 380.35 1637.96 380.966C1636.74 381.362 1635.69 382.04 1634.8 383.002C1633.84 383.894 1633.16 384.949 1632.76 386.168C1632.14 387.341 1631.86 388.606 1631.91 389.961C1632.03 390.831 1632.15 391.704 1632.27 392.576Z" fill="#CE3B17"/>
<path d="M591.118 1283.38L456.004 1207.04C414.274 1183.48 365.372 1159.21 320.617 1176.21C300.45 1183.85 284.149 1199.08 268.917 1214.35C250.847 1232.52 233.104 1251.75 221.97 1274.9C201.99 1316.49 205.81 1365.11 210.049 1411.08C213.028 1443.59 238.271 1472 264.214 1491.75C268.347 1494.9 272.69 1498.02 276.953 1501.25C274.986 1497.8 273.036 1494.33 271.115 1490.84C272.17 1490.89 273.247 1490.87 274.346 1490.76C280.036 1490.19 283.688 1487.4 285.712 1482.11C293.53 1461.66 270.457 1439.76 263.885 1421.78C259.688 1410.3 247.018 1406.85 238.434 1412.34C237.785 1409.64 237.187 1406.91 236.65 1404.18C233.749 1389.39 232.798 1374.37 233.629 1359.47C235.654 1360.93 237.94 1362.05 240.507 1362.72C258.027 1367.29 265.295 1349.57 267.309 1335.67C269.133 1323.12 273.458 1308 272.576 1295.41C271.864 1285.21 265.564 1278.33 257.715 1276.09C265.37 1262.11 274.688 1249.03 285.472 1237.29C288.401 1248.68 301.636 1258.11 313.083 1253.68C314.179 1253.26 315.317 1253.09 316.403 1252.7C319.996 1251.42 322.552 1249.63 325.477 1247.58C325.629 1247.51 326.069 1247.27 326.842 1246.87C327.102 1246.73 328.331 1246.07 329.227 1245.58C330.688 1244.95 334.338 1243.28 334.742 1243.07C335.027 1242.93 335.24 1242.82 335.381 1242.75C335.674 1242.63 336.004 1242.49 336.37 1242.33C335.442 1242.72 342.578 1239.36 339.831 1240.73C336.238 1242.53 348.095 1237.54 342.41 1239.57C353.488 1235.61 358.588 1223.29 354.37 1213.72C357.551 1214.82 360.663 1216.22 363.665 1217.91C373.075 1223.24 381.894 1229.84 389.99 1236.94C401.098 1246.67 411.24 1257.45 421.607 1267.98C406.132 1267.74 392.319 1285.14 402.048 1299.87C405.211 1304.66 408.902 1308.85 412.547 1313.23C409.1 1309.12 417.245 1319.7 418.78 1321.42C421.95 1324.97 425.616 1328.06 429.555 1330.75C443.95 1340.57 466.009 1342.91 480.468 1332.23C484.711 1329.1 488.069 1323.61 488.498 1318.16C515.013 1331.04 544.172 1338.52 573.615 1339.83C576.309 1331.62 579.345 1323.52 582.73 1315.56C588.088 1302.94 588.042 1306.39 594.888 1294.51C595.589 1293.25 596.38 1291.81 596.516 1290.36L596.566 1289.34C596.239 1286.54 593.538 1284.77 591.118 1283.38Z" fill="#D1A152"/>
<path d="M1044.31 1628.77C1046.3 1613.28 1038.11 1601.41 1028.37 1589.89C1019.5 1579.4 1008.78 1566.98 996.191 1561.05C985.603 1556.06 971.532 1563.37 970.303 1573.91C958.991 1565.28 947.261 1556.9 935.873 1548.31C939.647 1545.89 942.522 1541.36 942.182 1536.99C941.041 1522.28 928.874 1514.04 919.696 1503.84C910.868 1494.03 904.655 1481.64 893.776 1473.99C885.867 1468.44 875.906 1473.5 872.372 1481.31C870.498 1477.55 868.836 1473.67 867.415 1469.66C860.703 1450.69 858.486 1430.95 859.42 1411.07C857.399 1417.75 855.762 1424.51 854.538 1431.29C848.066 1467.2 860.314 1504.46 880.295 1534.92C900.275 1565.42 927.615 1590.3 954.581 1614.84C987.692 1644.93 985.036 1676.78 991.326 1721.08C995.097 1747.53 993.514 1775.71 980.565 1799.09C977.106 1805.36 972.701 1811.19 967.596 1816.31C990.073 1802.26 1009.47 1783.39 1022.86 1760.59C1041.98 1728.02 1048.01 1687.3 1036 1651.49C1034.61 1647.34 1032.96 1643.33 1031.08 1639.45C1038.23 1641.49 1043.49 1635.09 1044.31 1628.77Z" fill="#D1A152"/>
<path d="M1452.98 1341.61C1447.99 1315.81 1436.08 1293.45 1419.81 1273.77C1401.49 1285.18 1382.46 1295.49 1362.8 1304.57C1305.32 1331.07 1243.01 1317.1 1182 1300.19C1170.1 1296.89 1158.11 1293.45 1146.05 1290.16C1186.88 1315.61 1237.16 1330.64 1264.8 1372.11C1266.26 1374.29 1267.61 1376.51 1268.87 1378.77C1261.33 1395.63 1260.57 1413.83 1267.79 1431.18C1270.93 1438.75 1275.94 1447.76 1282.48 1454.17C1281.33 1467.47 1278.78 1480.74 1275.3 1493.45C1275.12 1494.09 1274.94 1494.74 1274.76 1495.38C1253.19 1505.04 1241.45 1534.29 1242.06 1556.37C1242.25 1563.1 1243.27 1570.19 1245.58 1576.72C1241.38 1588.4 1237.52 1600.18 1234.47 1612.22C1232.63 1619.48 1231.07 1627.05 1232.39 1634.43C1234.09 1643.94 1240.27 1651.52 1248.39 1656.89C1255.27 1661.44 1263.54 1664.4 1271.64 1665.62C1302.54 1670.24 1334.08 1656.32 1356.82 1634.9C1379.57 1613.48 1394.71 1585.28 1407.34 1556.7C1425.68 1515.19 1439.59 1471.71 1448.75 1427.26C1454.55 1399.08 1458.44 1369.87 1452.98 1341.61Z" fill="#D1A152"/>
<path d="M995.609 1276.9C980.643 1280.31 966.267 1286.02 952.781 1293.58C955.044 1306.26 956.525 1317.33 956.267 1325.53C955.685 1344.04 953.456 1362.79 957.268 1380.91C961.08 1399.03 972.523 1416.97 990.284 1422.22C1003.68 1426.18 1017.2 1422.26 1029.2 1414.66C1037.9 1409.14 1045.8 1401.69 1052.26 1393.9C1079.2 1361.39 1093.99 1321.17 1101.19 1279.22C1065.94 1272.01 1030.48 1268.96 995.609 1276.9Z" fill="#D1A152"/>
<path d="M943.167 727.24C964.075 688.489 958.021 640.333 942.003 599.301C937.578 587.938 932.406 576.853 926.494 566.14C910.098 536.381 888.161 509.694 861.336 488.875C837.631 470.479 809.081 456.553 779.086 457.019C693.111 458.277 674.714 564.371 683.424 639.309C684.154 645.519 685.074 651.53 686.154 657.252C687.415 663.932 688.896 670.217 690.551 675.961C699.029 705.211 713.51 733.387 736.288 753.599C757.246 772.183 784.399 783.128 812.157 786.714C831.808 789.229 852.309 787.588 871.454 782.009C901.585 773.23 928.359 754.694 943.167 727.24ZM781.356 712.834C776.037 712.983 771.422 711.75 767.563 709.558C756.847 703.471 751.969 689.979 754.104 678.077C748.067 675.151 742.803 670.345 739.267 664.327C722.252 635.387 746.517 591.121 782.211 601.605C798.63 606.428 807.763 623.381 807.454 639.726C807.405 642.315 807.13 644.853 806.656 647.333C818.438 643.17 829.979 638.409 841.857 633.156C856.989 626.463 881.686 617.542 888.508 639.592C895.449 662.017 867.523 683.894 850.89 693.518C840.962 699.263 830.115 703.769 818.889 706.985C806.596 710.507 793.849 712.482 781.356 712.834Z" fill="#D1A152"/>
<path d="M1161.09 639.634C1164.34 657.565 1168.91 675.728 1179.16 690.817C1189.32 705.81 1206.15 717.424 1224.29 717.135C1224.35 717.134 1224.41 717.134 1224.47 717.133C1237.23 716.899 1249.25 710.891 1259.5 703.299C1292 679.314 1309.38 639.447 1311.85 598.788C1309.28 600.605 1306.58 602.281 1303.65 603.818C1293.86 609.032 1283.82 613.283 1273.92 613.361C1266.67 613.418 1259.49 611.234 1252.56 605.542C1250.45 603.813 1248.89 601.442 1247.85 598.798C1245.82 597.73 1243.87 596.356 1242.05 594.662C1233.78 586.953 1226.34 578.202 1223.91 566.843C1222.62 560.814 1222.53 554.566 1224.38 548.761C1224.17 547.254 1224.08 545.725 1224.12 544.19C1224.45 530.809 1236.03 519.959 1249.42 519.959C1266.78 519.959 1280.55 535.53 1285.35 550.95C1285.55 551.581 1285.73 552.218 1285.9 552.859C1292.39 549.229 1298.84 545.979 1306.02 543.363C1294.89 501.353 1270.35 463.255 1241.52 430.328C1233.89 421.638 1226.51 415.842 1219.54 412.481C1191.37 398.909 1169.76 425.063 1164.72 460.974C1164.04 465.773 1163.38 470.552 1162.75 475.313C1156.73 520.264 1152.63 563.658 1156.8 608.424C1157.78 618.722 1159.18 629.155 1161.09 639.634Z" fill="#D1A152"/>
<path d="M1624.26 458.929C1618.35 468.335 1613.69 478.023 1610.1 487.897C1567.33 605.892 1679.48 753.12 1680.22 887.118C1681.49 863.464 1679.57 838.182 1678.95 819.341C1678.69 811.305 1678.27 803.283 1677.72 795.275C1688.07 798.809 1700.69 794.971 1703.62 781.994C1709.28 756.851 1714.35 712.163 1685.57 698.552C1680.2 696.01 1672.59 696.699 1669.62 702.734C1668.76 704.477 1668.04 706.254 1667.44 708.057C1664.48 689.273 1661.18 670.532 1657.77 651.812C1671.29 654.795 1686.95 647.454 1685.49 630.29C1683.29 604.347 1682.2 566.331 1663.28 545.582C1661.2 540.48 1658.54 536.17 1655 534.187L1653.79 533.509C1649.03 530.848 1644.14 530.541 1639.72 531.978C1639.85 526.793 1640.3 521.622 1641.17 516.483C1642.93 506.077 1646.38 496.08 1650.89 486.523C1657.48 494.395 1670.43 497.263 1678.52 488.448C1685 481.389 1692.12 474.678 1698.97 467.929C1707.57 459.449 1718.3 451.489 1717.06 437.824C1716.25 428.937 1711.82 423.636 1703.77 420.361C1702.88 420.001 1702 419.706 1701.12 419.471C1709.47 411.638 1718.36 404.384 1727.73 397.795C1731.16 395.375 1734.78 392.337 1737.95 388.986C1692.24 393.76 1648.72 419.861 1624.26 458.929Z" fill="#D1A152"/>
<path d="M1257.02 1593.8C1268.9 1603.57 1284.44 1600.89 1294.38 1590.06C1309.52 1573.57 1323.81 1544.6 1314.06 1523.5C1313.91 1506.27 1302.74 1489.12 1283.15 1492.76C1280.21 1493.31 1277.41 1494.2 1274.76 1495.38C1253.19 1505.04 1241.45 1534.29 1242.06 1556.37C1242.25 1563.1 1243.27 1570.19 1245.59 1576.72C1247.92 1583.31 1251.58 1589.32 1257.02 1593.8ZM1261.02 1531.66C1261.26 1527.73 1262.68 1523.89 1265.04 1520.55C1266.86 1517.97 1270.88 1517.04 1273.14 1519.33C1275.9 1519.17 1278.78 1521.67 1278.66 1524.51C1278.56 1526.83 1278.35 1529.12 1278.05 1531.38C1278.32 1540.35 1275.78 1549.04 1270.28 1556.56C1269.91 1557.07 1269.48 1557.49 1269.01 1557.83C1268.73 1558.3 1268.45 1558.77 1268.16 1559.24C1266.05 1562.71 1259.8 1562.48 1258.95 1558.04C1258.55 1555.91 1258.29 1553.79 1258.18 1551.69C1256.86 1544.6 1257.93 1537.68 1261.02 1531.66Z" fill="#F0C47C"/>
<path d="M1309.61 1460.19C1327.17 1451.97 1332.25 1428.14 1329.29 1410.72C1325.94 1390.99 1311.94 1371.57 1292.93 1364.83C1284.59 1361.87 1276.44 1366.44 1272.21 1373.35C1271.31 1374.22 1270.52 1375.28 1269.91 1376.55C1269.55 1377.29 1269.2 1378.03 1268.87 1378.77C1261.33 1395.63 1260.56 1413.83 1267.79 1431.19C1270.93 1438.75 1275.93 1447.77 1282.47 1454.17C1289.76 1461.3 1298.95 1465.18 1309.61 1460.19ZM1294.9 1429.17C1294.54 1430.43 1293.7 1431.41 1292.65 1432C1292.14 1433.83 1291.47 1435.64 1290.65 1437.4C1288.88 1441.19 1283.97 1439.38 1282.71 1436.36C1280.78 1431.73 1279.21 1427.04 1277.98 1422.26C1273.6 1415.26 1272.26 1406.52 1274.95 1398.21C1275.68 1395.97 1277.75 1394.73 1279.81 1394.93C1281.47 1394.44 1283.44 1394.83 1284.88 1396.03C1287.83 1398.48 1290.22 1401.37 1292.03 1404.53C1293.53 1404.51 1295 1405.35 1295.53 1407.27C1296.33 1410.2 1296.37 1413.04 1295.86 1415.76C1296.47 1420.14 1296.17 1424.7 1294.9 1429.17Z" fill="#F0C47C"/>
<path d="M1258.63 1557.99C1259.48 1562.43 1265.72 1562.66 1267.84 1559.19C1268.12 1558.72 1268.4 1558.25 1268.68 1557.77C1269.15 1557.44 1269.58 1557.02 1269.95 1556.51C1275.45 1548.99 1277.99 1540.3 1277.72 1531.34C1278.02 1529.08 1278.22 1526.79 1278.33 1524.47C1278.45 1521.63 1275.56 1519.13 1272.81 1519.29C1270.55 1517 1266.53 1517.93 1264.71 1520.52C1262.36 1523.85 1260.93 1527.69 1260.69 1531.61C1257.6 1537.64 1256.53 1544.56 1257.86 1551.64C1257.97 1553.74 1258.22 1555.86 1258.63 1557.99Z" fill="#845817"/>
<path d="M1295.19 1407.27C1294.66 1405.35 1293.2 1404.51 1291.69 1404.53C1289.88 1401.37 1287.49 1398.49 1284.55 1396.04C1283.11 1394.84 1281.14 1394.45 1279.48 1394.94C1277.42 1394.74 1275.35 1395.98 1274.62 1398.22C1271.93 1406.53 1273.27 1415.25 1277.65 1422.26C1278.88 1427.03 1280.45 1431.73 1282.37 1436.35C1283.63 1439.37 1288.55 1441.18 1290.32 1437.39C1291.14 1435.63 1291.8 1433.82 1292.31 1432C1293.36 1431.4 1294.21 1430.42 1294.56 1429.17C1295.83 1424.7 1296.13 1420.14 1295.52 1415.76C1296.04 1413.04 1295.99 1410.2 1295.19 1407.27Z" fill="#845817"/>
<path d="M1052.26 1393.9C1079.2 1361.39 1093.99 1321.17 1101.19 1279.22C1065.94 1272.01 1030.48 1268.96 995.61 1276.9C980.644 1280.31 966.268 1286.02 952.782 1293.58C955.045 1306.27 956.526 1317.33 956.268 1325.53C955.686 1344.04 953.457 1362.79 957.268 1380.91C961.08 1399.03 972.523 1416.97 990.284 1422.22C1003.68 1426.18 1017.2 1422.26 1029.2 1414.66C1037.9 1409.14 1045.8 1401.69 1052.26 1393.9Z" fill="#F0C47C"/>
<path d="M741.641 703.021C750.039 706.228 758.728 708.363 767.563 709.558C756.848 703.47 751.969 689.978 754.104 678.077C748.067 675.151 742.803 670.346 739.267 664.327C722.252 635.387 746.517 591.121 782.212 601.605C798.631 606.428 807.764 623.382 807.454 639.726C807.405 642.315 807.13 644.853 806.656 647.333C818.438 643.17 829.979 638.409 841.857 633.156C856.989 626.463 881.686 617.542 888.508 639.592C895.448 662.017 867.522 683.894 850.889 693.518C840.961 699.264 830.114 703.769 818.888 706.986C828.429 704.906 837.812 702.025 846.85 698.505C883.368 684.299 918.112 656.402 925.516 617.886C928.823 600.933 926.494 583.468 926.494 566.141C910.098 536.382 888.162 509.695 861.336 488.876C837.631 470.48 809.082 456.554 779.086 457.02C693.111 458.278 674.713 564.372 683.423 639.311C695.021 668.418 710.808 691.191 741.641 703.021Z" fill="#F0C47C"/>
<path d="M1164.72 460.978C1164.04 465.777 1163.38 470.556 1162.75 475.317C1156.72 520.268 1152.63 563.662 1156.8 608.428C1160.95 619.933 1168.86 629.573 1187.54 635.535C1201.65 640.051 1217.11 639.308 1231.46 635.535C1247.05 631.457 1261.59 623.727 1273.92 613.361C1266.67 613.418 1259.49 611.234 1252.56 605.542C1250.45 603.813 1248.89 601.442 1247.85 598.798C1245.82 597.73 1243.87 596.356 1242.05 594.662C1233.78 586.953 1226.34 578.202 1223.91 566.843C1222.62 560.814 1222.53 554.566 1224.38 548.761C1224.17 547.255 1224.08 545.726 1224.12 544.19C1224.45 530.809 1236.03 519.959 1249.42 519.959C1266.78 519.959 1280.55 535.53 1285.35 550.95C1285.55 551.581 1285.73 552.218 1285.9 552.859C1292.39 549.229 1298.85 545.979 1306.03 543.363C1294.89 501.353 1270.35 463.255 1241.52 430.328C1233.89 421.638 1226.51 415.842 1219.54 412.481C1191.37 398.914 1169.76 425.067 1164.72 460.978Z" fill="#F0C47C"/>
<path d="M446.92 1306.44C441.359 1303.44 436.499 1299.61 431.657 1295.59C425.778 1290.7 418.089 1298.19 423.214 1304.03C430.953 1312.85 447.303 1325.52 459.86 1322.02C462.961 1321.16 463.734 1317.4 461.679 1315.13C457.823 1310.87 451.889 1309.12 446.92 1306.44Z" fill="#845817"/>
<path d="M342.379 1221.19C330.794 1218.68 318.459 1225.53 310.33 1233.27C306.692 1236.74 311.485 1243.26 315.79 1240.35C320.132 1237.42 324.643 1234.68 329.471 1232.62C333.995 1230.69 338.819 1229.23 343.111 1226.81C345.334 1225.56 344.988 1221.76 342.379 1221.19Z" fill="#845817"/>
<path d="M1010.43 1593.99C1013.51 1597.35 1016.17 1600.75 1020.16 1603.12C1022.07 1604.27 1025.09 1602.83 1024.88 1600.42C1024.39 1594.81 1021.52 1590.68 1017.74 1586.68C1013.7 1582.41 1009.96 1579.73 1004.51 1577.75C1000.77 1576.39 998.847 1581.33 1000.96 1583.84C1003.96 1587.4 1007.26 1590.55 1010.43 1593.99Z" fill="#845817"/>
</svg>
